<svg xmlns="http://www.w3.org/2000/svg" width="2202.6379" height="195" viewBox="0 0 2202.6379 195"><defs><style>.cls-1{fill:#122049;}.cls-2{fill:#2d3ee0;}.cls-3{fill:none;}</style></defs><title>AutoblogCar</title><g id="Calque_2" data-name="Calque 2"><g id="Calque_1-2" data-name="Calque 1"><g id="AutoblogCar"><g id="LTX0"><path class="cls-1" d="M159.7092,187.22V73.6147h27.8574V90.0464A38.0781,38.0781,0,0,1,200.0261,75.9q7.5622-5.0039,18.88-5.0054,12.2952,0,20.1856,5.4951a32.2341,32.2341,0,0,1,11.6978,15.7242q11.0991-21.219,34.6035-21.2193,17.4088,0,26.17,11.1538,8.7582,11.1556,8.76,30.7408V187.22H292.466V114.7476q0-21.1092-15.9961-21.11h-.2178a19.7009,19.7009,0,0,0-16.1591,7.6714q-6.1488,7.672-6.148,20.1855V187.22H226.0876V114.7476q0-21.1092-16.105-21.11h-.2173a19.5522,19.5522,0,0,0-16.105,7.6714q-6.0951,7.672-6.0937,20.1855V187.22Z" transform="translate(0 -35.6377)"/><path class="cls-1" d="M347.8537,130.2a75.6374,75.6374,0,0,1,3.6948-24.3208A55.7052,55.7052,0,0,1,361.93,87.1626a45.6667,45.6667,0,0,1,16.1421-12.0244,50.6707,50.6707,0,0,1,20.9794-4.2437,51.6556,51.6556,0,0,1,20.97,4.1348,47.9606,47.9606,0,0,1,16.1216,11.3716,49.1728,49.1728,0,0,1,10.2407,17.2475,64.52,64.52,0,0,1,3.54,21.6543V139.34H376.799v7.5083q0,10.23,6.7075,15.833a23.9693,23.9693,0,0,0,15.8736,5.6036q9.1611,0,14.9438-4.7872,5.7795-4.7877,6.8726-13.4936h27.8569q-2.7238,18.9339-15.96,29.4351-13.2364,10.5028-34.0411,10.5009a51.3221,51.3221,0,0,1-21.5776-4.3525A45.33,45.33,0,0,1,361.3864,173.4a54.4665,54.4665,0,0,1-10.0537-18.8257A80.4987,80.4987,0,0,1,347.8537,130.2Zm28.9453-12.5142h44.6153V113.66q0-9.3574-6.3272-15.2344t-16.0352-5.8765q-9.5991,0-15.9262,5.8765T376.799,113.66Z" transform="translate(0 -35.6377)"/><path class="cls-1" d="M471.9055,131.07a82.1187,82.1187,0,0,1,3.5869-25.1914,54.02,54.02,0,0,1,10.2734-18.9341A44.7745,44.7745,0,0,1,501.799,75.0293a51.617,51.617,0,0,1,21.0889-4.1348A61.8534,61.8534,0,0,1,539.99,73.2339a44.4073,44.4073,0,0,1,14.76,7.3452A37.9542,37.9542,0,0,1,565.426,93.3652a49.211,49.211,0,0,1,5.0674,18.5533H542.6359q-1.0912-10.88-6.7109-15.1255-5.6176-4.2444-14.127-4.2442a21.64,21.64,0,0,0-14.73,5.4409q-6.2182,5.4428-6.2177,16.7579v31.23q0,10.4466,5.8906,16.3775t15.2734,5.93q9.3808,0,14.7823-4.461,5.3994-4.4612,6.71-15.7788h27.8565a51.1542,51.1542,0,0,1-5.1211,18.4448,40.2159,40.2159,0,0,1-10.5108,13.0039,44.83,44.83,0,0,1-14.706,7.834,57.8066,57.8066,0,0,1-17.5928,2.6123,53.36,53.36,0,0,1-22.2852-4.3525,45.7931,45.7931,0,0,1-16.1435-12.0791,50.8532,50.8532,0,0,1-9.8379-18.499A82.4015,82.4015,0,0,1,471.9055,131.07Z" transform="translate(0 -35.6377)"/><path class="cls-1" d="M592.91,131.07a82.1186,82.1186,0,0,1,3.587-25.1914,54.02,54.02,0,0,1,10.2734-18.9341,44.7745,44.7745,0,0,1,16.0332-11.9155,51.6163,51.6163,0,0,1,21.0889-4.1348,61.8539,61.8539,0,0,1,17.1025,2.3394,44.4073,44.4073,0,0,1,14.76,7.3452,37.9542,37.9542,0,0,1,10.6758,12.7861,49.211,49.211,0,0,1,5.0673,18.5533H663.6408q-1.0912-10.88-6.7109-15.1255-5.6177-4.2444-14.127-4.2442a21.64,21.64,0,0,0-14.73,5.4409q-6.2182,5.4428-6.2177,16.7579v31.23q0,10.4466,5.8906,16.3775t15.2734,5.93q9.3809,0,14.7822-4.461,5.4-4.4612,6.71-15.7788h27.8565a51.1542,51.1542,0,0,1-5.1211,18.4448,40.2172,40.2172,0,0,1-10.5108,13.0039,44.83,44.83,0,0,1-14.706,7.834,57.8066,57.8066,0,0,1-17.5928,2.6123,53.36,53.36,0,0,1-22.2852-4.3525,45.7922,45.7922,0,0,1-16.1435-12.0791,50.8517,50.8517,0,0,1-9.8379-18.499A82.4014,82.4014,0,0,1,592.91,131.07Z" transform="translate(0 -35.6377)"/><path class="cls-1" d="M712.8254,154.9009a33.2731,33.2731,0,0,1,9.5762-23.8238q9.577-10.0077,27.6416-11.64l31.4462-2.6221v-7.3994q0-8.9208-4.788-12.8945-4.79-3.9712-13.0586-3.9722-8.4873,0-13.8194,4.0806t-5.332,11.9155H716.634A34.562,34.562,0,0,1,730.7805,80.47a45.74,45.74,0,0,1,15.0166-7.1274,69.7137,69.7137,0,0,1,18.9345-2.4483q20.4565,0,32.3184,9.9024,11.8593,9.903,11.8613,29.0542v55.7143h19.1514V187.22H784.2092l-.2168-17.6279h-.98a39.899,39.899,0,0,1-13.0039,14.8535q-8.108,5.4932-21.2735,5.4951a37.914,37.914,0,0,1-14.3095-2.6123,35.4672,35.4672,0,0,1-11.3711-7.29,32.53,32.53,0,0,1-7.5635-10.9912A35.9985,35.9985,0,0,1,712.8254,154.9009Zm28.9453,3.1762a8.2229,8.2229,0,0,0,4.68,7.6563q4.6771,2.5531,12.0781,2.5518,10.6641,0,16.8125-7.54a28.0151,28.0151,0,0,0,6.1484-18.2847v-4.45L748.0871,140.92q-6.2065.6526-6.3164,7.3843Z" transform="translate(0 -35.6377)"/><path class="cls-1" d="M847.4328,187.22V73.6147h27.8565V90.0464A38.079,38.079,0,0,1,887.7492,75.9q7.5615-5.0039,18.88-5.0054,12.296,0,20.1855,5.4951a32.23,32.23,0,0,1,11.6973,15.7242q11.1006-21.219,34.6045-21.2193,17.4083,0,26.17,11.1538,8.7583,11.1556,8.76,30.7408V187.22H980.19V114.7476q0-21.1092-15.9961-21.11h-.2177a19.7006,19.7006,0,0,0-16.1592,7.6714q-6.1494,7.672-6.1484,20.1855V187.22H913.8107V114.7476q0-21.1092-16.1045-21.11h-.2177a19.553,19.553,0,0,0-16.1055,7.6714q-6.0953,7.672-6.0937,20.1855V187.22Z" transform="translate(0 -35.6377)"/><path class="cls-1" d="M1041.0178,60.4482v-24.81h28.7275v24.81Zm.4355,126.7715V73.6147H1069.31V187.22Z" transform="translate(0 -35.6377)"/><path class="cls-1" d="M1097.7121,131.07a82.1187,82.1187,0,0,1,3.5869-25.1914,54.0185,54.0185,0,0,1,10.2735-18.9341,44.7736,44.7736,0,0,1,16.0332-11.9155,51.6162,51.6162,0,0,1,21.0888-4.1348,61.8547,61.8547,0,0,1,17.1026,2.3394,44.4059,44.4059,0,0,1,14.76,7.3452,37.9519,37.9519,0,0,1,10.6758,12.7861,49.211,49.211,0,0,1,5.0674,18.5533h-27.8574q-1.0914-10.88-6.711-15.1255-5.6177-4.2444-14.1269-4.2442a21.64,21.64,0,0,0-14.73,5.4409q-6.2182,5.4428-6.2178,16.7579v31.23q0,10.4466,5.8906,16.3775t15.2735,5.93q9.3809,0,14.7822-4.461,5.3994-4.4612,6.71-15.7788H1197.17a51.1522,51.1522,0,0,1-5.1211,18.4448,40.2157,40.2157,0,0,1-10.5107,13.0039,44.8319,44.8319,0,0,1-14.7061,7.834,57.8062,57.8062,0,0,1-17.5928,2.6123,53.36,53.36,0,0,1-22.2851-4.3525,45.7935,45.7935,0,0,1-16.1436-12.0791,50.8547,50.8547,0,0,1-9.8379-18.499A82.4015,82.4015,0,0,1,1097.7121,131.07Z" transform="translate(0 -35.6377)"/><path class="cls-1" d="M1218.716,130.4175a77.7307,77.7307,0,0,1,3.5869-24.3208,54.4973,54.4973,0,0,1,10.3819-18.8252,45.2115,45.2115,0,0,1,16.6865-12.1333,62.4805,62.4805,0,0,1,45.2676,0A45.3271,45.3271,0,0,1,1311.36,87.2715a53.789,53.789,0,0,1,10.3476,18.8252,78.6788,78.6788,0,0,1,3.54,24.3208,78.1572,78.1572,0,0,1-3.54,24.2661,54.4156,54.4156,0,0,1-10.3476,18.8252,45.04,45.04,0,0,1-16.7207,12.1875,62.4751,62.4751,0,0,1-45.2676,0,44.9259,44.9259,0,0,1-16.6865-12.1875,55.1418,55.1418,0,0,1-10.3819-18.8252A77.2158,77.2158,0,0,1,1218.716,130.4175Zm28.9453,16.4311q0,10.23,6.9248,15.833,6.9243,5.606,17.3955,5.6036,10.4692,0,17.3955-5.4405,6.9245-5.44,6.9248-15.9961V113.877q0-10.4466-6.9248-15.8873-6.9271-5.44-17.3955-5.4409-10.4721,0-17.3955,5.55-6.9271,5.55-6.9248,15.7784Z" transform="translate(0 -35.6377)"/><path class="cls-1" d="M1349.0783,155.9893q0-13.3564,7.0205-22.1t21.9317-10.1538l43.0849-4.0909V109.1978a33.2708,33.2708,0,0,0-2.01-12.5137,19.745,19.745,0,0,0-5.4288-7.78,20.1283,20.1283,0,0,0-8.4169-4.0806,47.5888,47.5888,0,0,0-11.0772-1.1972q-12.0528,0-19.33,5.55t-7.2754,17.1929H1353.54a34.5576,34.5576,0,0,1,2.9571-14.5269,31.9879,31.9879,0,0,1,8.4414-11.1538,39.0924,39.0924,0,0,1,13.1191-7.2363,51.8724,51.8724,0,0,1,16.5606-2.5572,56.17,56.17,0,0,1,16.6455,2.3394,34.5836,34.5836,0,0,1,12.8623,7.019,30.5,30.5,0,0,1,8.1621,12.024,47.7007,47.7007,0,0,1,2.8642,17.3564v64.855H1451.91V187.22h-28.9736l-.5156-22.09h-.6631q-4.67,12.0791-14.0068,18.4443a37.9771,37.9771,0,0,1-21.93,6.3662,46.423,46.423,0,0,1-15.8028-2.6123,28.74,28.74,0,0,1-11.7539-7.5078,29.4764,29.4764,0,0,1-6.8349-10.7734A37.0986,37.0986,0,0,1,1349.0783,155.9893Zm15.5615,3.88q0,8.7789,6.3536,13.06,6.3559,4.28,17.2167,4.28a31.3323,31.3323,0,0,0,13.6836-2.9082,30.5948,30.5948,0,0,0,10.4248-8.12,35.3369,35.3369,0,0,0,6.5694-12.6192,56.028,56.028,0,0,0,2.2275-16.1865v-5.5977l-47.3681,4.2764q-4.9776.4388-7.044,3.2373-2.0654,2.8-2.0635,7.957Z" transform="translate(0 -35.6377)"/><path class="cls-1" d="M1475.5236,149.3516V73.6147h14.0371v73.2339q0,14.0376,5.3418,22.1983t19.4073,8.1621a28.8215,28.8215,0,0,0,22.7851-10.7188,39.5,39.5,0,0,0,6.7061-12.1875,46.3775,46.3775,0,0,0,2.4531-15.3979v-65.29h14.0381V187.22h-14.0381V167.415A38.4088,38.4088,0,0,1,1533.008,184.01q-8.5592,5.93-21.3145,5.9306a45.4732,45.4732,0,0,1-14.5869-2.2314,28.8258,28.8258,0,0,1-11.4648-7.127,32.55,32.55,0,0,1-7.4815-12.623A57.9084,57.9084,0,0,1,1475.5236,149.3516Z" transform="translate(0 -35.6377)"/><path class="cls-1" d="M1588.258,86.2378V73.6147h19.3691V35.6377h14.0381v37.977h27.64V86.2378h-27.64v88.2505h27.64V187.22h-41.6778V86.2378Z" transform="translate(0 -35.6377)"/><path class="cls-1" d="M1671.7209,130.4175a93.5061,93.5061,0,0,1,2.8828-23.8858,52.6723,52.6723,0,0,1,8.9238-18.8252,41.8248,41.8248,0,0,1,15.2881-12.3505q9.2477-4.4605,21.6553-4.4615,12.5112,0,21.7627,4.4615a41.8516,41.8516,0,0,1,15.289,12.3505,52.6862,52.6862,0,0,1,8.9229,18.8252,93.545,93.545,0,0,1,2.8838,23.8858,92.8889,92.8889,0,0,1-2.8838,23.8305,53.2482,53.2482,0,0,1-8.9229,18.8252,41.5877,41.5877,0,0,1-15.289,12.4053q-9.25,4.46-21.7627,4.4619-12.5157,0-21.709-4.4619a41.67,41.67,0,0,1-15.2344-12.4053,53.2341,53.2341,0,0,1-8.9238-18.8252A92.85,92.85,0,0,1,1671.7209,130.4175Zm15.5605,17.084a28.3972,28.3972,0,0,0,2.5567,12.1333,29.3573,29.3573,0,0,0,7.02,9.5214,30.63,30.63,0,0,0,10.5,6.1485,41.9278,41.9278,0,0,0,26.334,0,30.0467,30.0467,0,0,0,10.4463-6.1485,30.6366,30.6366,0,0,0,7.0185-9.4672,27.7976,27.7976,0,0,0,2.6123-12.1875V113.2241a27.9079,27.9079,0,0,0-2.6123-12.1328,29.85,29.85,0,0,0-7.0185-9.4673,30.5043,30.5043,0,0,0-10.4463-6.0937,39.6392,39.6392,0,0,0-13.2207-2.1221,39.1561,39.1561,0,0,0-13.167,2.1221,31.1894,31.1894,0,0,0-10.4463,6.0937,28.795,28.795,0,0,0-7.02,9.4673,28.4058,28.4058,0,0,0-2.5567,12.1328Z" transform="translate(0 -35.6377)"/><path class="cls-1" d="M1802.6271,187.22V35.6377h14.0372v57.564q11.1182-22.3053,37.2773-22.3072a41.9486,41.9486,0,0,1,19.39,4.3526,40.7028,40.7028,0,0,1,14.3223,12.2422,54.9074,54.9074,0,0,1,8.7158,18.8252,94.3315,94.3315,0,0,1,2.8877,24.103,94.9578,94.9578,0,0,1-2.8877,24.1572,55.5256,55.5256,0,0,1-8.6064,18.8257,40.0765,40.0765,0,0,1-14.16,12.1875,42.3513,42.3513,0,0,1-19.6611,4.3525,43.0879,43.0879,0,0,1-21.8555-5.6045,39.1974,39.1974,0,0,1-15.4218-16.7031V187.22Zm14.0372-47.4443a45.8015,45.8015,0,0,0,2.3427,14.9082,33.818,33.818,0,0,0,6.9209,11.915,31.5751,31.5751,0,0,0,10.9541,7.835,35.86,35.86,0,0,0,14.4424,2.7754,36.3744,36.3744,0,0,0,13.5156-2.34,31.4414,31.4414,0,0,0,10.1368-6.3662,27.2776,27.2776,0,0,0,6.4843-9.3579,29.8081,29.8081,0,0,0,2.2344-11.6435V113.2241a29.93,29.93,0,0,0-2.2344-11.5888,26.6374,26.6374,0,0,0-6.4843-9.3584,31.8523,31.8523,0,0,0-10.1915-6.3111,36.5085,36.5085,0,0,0-13.4609-2.34,35.8519,35.8519,0,0,0-14.4424,2.7749,31.94,31.94,0,0,0-10.9541,7.78,33.2046,33.2046,0,0,0-6.9209,11.9155,46.3052,46.3052,0,0,0-2.3427,14.9624Z" transform="translate(0 -35.6377)"/><path class="cls-1" d="M1933.425,187.22V35.6377h14.0371V187.22Z" transform="translate(0 -35.6377)"/><path class="cls-1" d="M1981.74,130.4175a93.5061,93.5061,0,0,1,2.8828-23.8858,52.6708,52.6708,0,0,1,8.9239-18.8252,41.8253,41.8253,0,0,1,15.288-12.3505q9.2477-4.4605,21.6553-4.4615,12.5112,0,21.7627,4.4615a41.8519,41.8519,0,0,1,15.2891,12.3505,52.686,52.686,0,0,1,8.9228,18.8252,93.545,93.545,0,0,1,2.8838,23.8858,92.8889,92.8889,0,0,1-2.8838,23.8305,53.2481,53.2481,0,0,1-8.9228,18.8252,41.588,41.588,0,0,1-15.2891,12.4053q-9.25,4.46-21.7627,4.4619-12.5155,0-21.709-4.4619a41.6694,41.6694,0,0,1-15.2343-12.4053,53.2325,53.2325,0,0,1-8.9239-18.8252A92.85,92.85,0,0,1,1981.74,130.4175Zm15.5606,17.084a28.3971,28.3971,0,0,0,2.5566,12.1333,29.3588,29.3588,0,0,0,7.0195,9.5214,30.6319,30.6319,0,0,0,10.5,6.1485,41.9278,41.9278,0,0,0,26.334,0,30.0467,30.0467,0,0,0,10.4463-6.1485,30.6385,30.6385,0,0,0,7.0186-9.4672,27.7976,27.7976,0,0,0,2.6123-12.1875V113.2241a27.9079,27.9079,0,0,0-2.6123-12.1328,29.8516,29.8516,0,0,0-7.0186-9.4673,30.5043,30.5043,0,0,0-10.4463-6.0937,39.6387,39.6387,0,0,0-13.2207-2.1221,39.1561,39.1561,0,0,0-13.167,2.1221,31.19,31.19,0,0,0-10.4463,6.0937,28.7964,28.7964,0,0,0-7.0195,9.4673,28.4058,28.4058,0,0,0-2.5566,12.1328Z" transform="translate(0 -35.6377)"/><path class="cls-1" d="M2106.009,130.4175a94.38,94.38,0,0,1,2.8847-24.103,54.9234,54.9234,0,0,1,8.7139-18.8252A41.1537,41.1537,0,0,1,2131.77,75.2471a41.6792,41.6792,0,0,1,19.5528-4.3526q26.1591,0,37.2783,22.3072V73.6147h14.0371v110.232a50.9165,50.9165,0,0,1-3.8848,20.6748,42.1018,42.1018,0,0,1-10.3086,14.582,42.736,42.736,0,0,1-14.7871,8.65,53.12,53.12,0,0,1-17.43,2.8838,81.2426,81.2426,0,0,1-16.5127-1.6318,40.3976,40.3976,0,0,1-13.92-5.55,32.83,32.83,0,0,1-10.1445-10.61q-4.1-6.6913-5.1807-16.7031h14.0381q1.3052,10.6641,8.8818,16.2685,7.5747,5.6031,21.9659,5.6035,14.2762,0,23.7607-8.3789t9.4844-25.5712V167.6328a38.7625,38.7625,0,0,1-15.2071,16.7031,42.2807,42.2807,0,0,1-21.6357,5.6045,42.9324,42.9324,0,0,1-19.8252-4.3525A40.9166,40.9166,0,0,1,2117.6076,173.4a54.2944,54.2944,0,0,1-8.7139-18.8257A95.0065,95.0065,0,0,1,2106.009,130.4175Zm15.5605,17.084a29.9462,29.9462,0,0,0,2.2344,11.5888,27.1381,27.1381,0,0,0,6.4844,9.4126,31.0459,31.0459,0,0,0,10.2988,6.3662,36.69,36.69,0,0,0,13.3506,2.34,35.8669,35.8669,0,0,0,14.4424-2.7754,31.5751,31.5751,0,0,0,10.9541-7.835,33.8351,33.8351,0,0,0,6.9218-11.915,45.8014,45.8014,0,0,0,2.3448-14.9082V121.0591a46.3053,46.3053,0,0,0-2.3448-14.9624,33.221,33.221,0,0,0-6.9218-11.9155,31.94,31.94,0,0,0-10.9541-7.78,35.8583,35.8583,0,0,0-14.4424-2.7749,36.6033,36.6033,0,0,0-13.4053,2.34,31.7147,31.7147,0,0,0-10.2441,6.3111,26.6259,26.6259,0,0,0-6.4844,9.3584,29.948,29.948,0,0,0-2.2344,11.5888Z" transform="translate(0 -35.6377)"/></g><g id="M4dCpZ.tif"><path class="cls-2" d="M15.5181,84.9033H10.3643V79.7018H0V64.1006H10.3015V58.8282H31.1421v-5.21H41.5346V48.47H78.0061v5.1229H88.4129v5.2h15.5634v5.2141h5.1976V79.6511H93.6707v5.25H88.495l.0228.031V74.5015H77.97v10.43l.0252-.0288H72.8415V79.7407H31.1572v5.16h-5.138l.0219.0312c-.0307-.3592-.087-.7184-.088-1.0776-.0074-2.7718-.0021-5.5436-.0067-8.3153,0-.35-.0355-.699-.054-1.0382h-10.4v10.43Zm46.813-31.2251H46.7565v5.1652H36.4083v5.1429H62.3311Z" transform="translate(0 -35.6377)"/><path class="cls-2" d="M26.0192,84.9012V89.999H15.5181V84.9033l-.0254.0284,10.5484.0007Z" transform="translate(0 -35.6377)"/><path class="cls-2" d="M88.495,84.9015V90h-10.5q0-2.54,0-5.0969l-.0252.0288,10.5481.0006Z" transform="translate(0 -35.6377)"/><path class="cls-3" d="M62.3311,53.6782V63.9863H36.4083V58.8434H46.7565V53.6782Z" transform="translate(0 -35.6377)"/><path class="cls-3" d="M26.0411,84.9324l-10.5484-.0007v-10.43h10.4c.0185.3392.0535.6886.054,1.0382.0046,2.7717-.0007,5.5435.0067,8.3153C25.9541,84.214,26.01,84.5732,26.0411,84.9324Z" transform="translate(0 -35.6377)"/><path class="cls-3" d="M88.5178,84.9325,77.97,84.9319v-10.43H88.5178Z" transform="translate(0 -35.6377)"/></g></g></g></g></svg>