<svg version="1.1" xmlns="http://www.w3.org/2000/svg"  xmlns:xlink="http://www.w3.org/1999/xlink" x="0px" y="0px" width="512px"
   height="512px" viewBox="0 0 512 512" >
    <style>
      g { display: none }
      g:target { display: inline } 
    </style>
    <g id="car-book">
      <path d="M416.8,61.7a6.7,6.7,0,0,0-6.7-6.7H101.9A46.9536,46.9536,0,0,0,55,101.9V423.5A33.54,33.54,0,0,0,88.5,457H410.1a6.7,6.7,0,0,0,6.7-6.7V289.5h26.8V249.3H416.8V235.9H457V195.7H416.8V182.3h26.8V142.1H416.8V128.7H457V88.5H416.8ZM68.4,356.5a12.6094,12.6094,0,0,1,13.4-13.4V329.7a27.3368,27.3368,0,0,0-13.4,3.2629V323a12.6094,12.6094,0,0,1,13.4-13.4V296.2a27.3368,27.3368,0,0,0-13.4,3.2629V148.8a12.6094,12.6094,0,0,1,13.4-13.4V122a27.3368,27.3368,0,0,0-13.4,3.2629V101.9A33.56,33.56,0,0,1,95.2,69.07V390H88.5a33.1515,33.1515,0,0,0-20.1,6.8742Zm335,87.1H88.5a20.1,20.1,0,1,1,0-40.2h26.8v13.4H81.8v13.4h33.5v6.7a6.7,6.7,0,0,0,9.6949,6.03L148.8,430.9906,172.6051,442.93A6.7,6.7,0,0,0,182.3,436.9v-6.7H403.4ZM128.7,426.0594V403.4h40.2v22.6594l-17.1051-8.5559a6.7,6.7,0,0,0-5.99,0ZM403.4,416.8H182.3V403.4H403.4Zm0-26.8H108.6V68.4H403.4Zm26.8-127.3v13.4H416.8V262.7Zm13.4-53.6v13.4H416.8V209.1Zm-13.4-53.6v13.4H416.8V155.5Zm13.4-53.6v13.4H416.8V101.9Z"/><path d="M168.9,202.4h27.9457a20.1,20.1,0,0,0,37.9086,0h29.0914a20.1,20.1,0,0,0,37.9086,0H343.1V156.5251l-44.0927-7.37L273.2324,128.7H200.9193L168.9,161.4362Zm13.4-35.51,24.2607-24.79h62.0018l24.83,19.7248,36.3073,6.03V189H289.5v6.7a6.7,6.7,0,1,1-13.4,0V189H222.5v6.7a6.7,6.7,0,1,1-13.4,0V189H182.3Z"/><path d="M390,81.8H122V269.4H390ZM376.6,256H135.4V95.2H376.6Z"/><path d="M142.1,369.9v6.7H369.9v-6.7a13.4,13.4,0,0,1,13.4-13.4H390V302.9h-6.7a13.4,13.4,0,0,1-13.4-13.4v-6.7H142.1v6.7a13.4,13.4,0,0,1-13.4,13.4H122v53.6h6.7A13.4,13.4,0,0,1,142.1,369.9Zm-6.7-54.4509A26.9,26.9,0,0,0,154.6558,296.2H357.3442A26.9007,26.9007,0,0,0,376.6,315.4491v28.5018A26.9007,26.9007,0,0,0,357.3442,363.2H154.6558A26.9007,26.9007,0,0,0,135.4,343.9509Z"/><path d="M168.9,309.6h26.8V323H168.9Z"/><path d="M209.1,309.6h93.8V323H209.1Z"/><path d="M316.3,309.6h26.8V323H316.3Z"/><path d="M168.9,336.4h80.4v13.4H168.9Z"/><path d="M262.7,336.4h80.4v13.4H262.7Z"/><path d="M162.2,122h13.4V108.6H148.8v33.5h13.4Z"/><path d="M349.8,229.2H323v13.4h40.2V215.8H349.8Z"/><path d="M349.8,148.8h13.4V108.6H309.6V122h40.2Z"/><path d="M296.2,229.2h13.4v13.4H296.2Z"/>
    </g>
    <g id="default">
      <path d="M217.482,241.27h27.2305v13.618H217.482Z"/><path d="M449.9165,220.9152l-46.2448-6.6041a233.3556,233.3556,0,0,0-26.2055-13.8867A229.2605,229.2605,0,0,0,282.6192,180h-8.0334A231.4111,231.4111,0,0,0,164.0875,208.178L140.749,220.91a160.8611,160.8611,0,0,0-77.8466,21.103,31.08,31.08,0,0,0-15.6181,26.9119v40.4248a6.8074,6.8074,0,0,0,6.8091,6.809H76.9526a40.6975,40.6975,0,0,0,76.8133,0H335.6536a40.6976,40.6976,0,0,0,76.8134,0H414.91a6.8348,6.8348,0,0,0,2.5319-.4848l22.05-8.8478A25.7448,25.7448,0,0,0,455.7588,282.8V227.6549A6.8118,6.8118,0,0,0,449.9165,220.9152ZM142.0427,307.9891a27.2342,27.2342,0,1,1,.5512-5.4461A27.2306,27.2306,0,0,1,142.0427,307.9891Zm123.0941-5.4461H156.2092a40.8472,40.8472,0,1,0-81.6943,0H60.9V268.9245a17.4141,17.4141,0,0,1,8.762-15.0917,147.19,147.19,0,0,1,72.9323-19.3689H265.1368Zm0-81.6943H169.2954l1.313-.7175a217.6807,217.6807,0,0,1,94.5284-26.2166Zm13.6153-27.2333h3.8533A215.4669,215.4669,0,0,1,362.71,208.962l-11.8867,11.8867H278.7521ZM400.7437,307.9891a27.2336,27.2336,0,1,1,.5513-5.4461A27.232,27.232,0,0,1,400.7437,307.9891Zm41.4-66.7189H421.7192v13.618h20.4243V282.8a12.1845,12.1845,0,0,1-7.7065,11.3742L414.91,302.0167c0-.6261-.08-1.2466-.1219-1.8726s-.0554-1.36-.1219-2.0416c-.0692-.6815-.2049-1.3629-.313-2.0416-.1108-.6815-.1911-1.3629-.3269-1.9807-.1357-.62-.3351-1.3075-.5124-1.9557-.1773-.6454-.3131-1.2992-.518-1.9336-.2023-.6315-.4488-1.2382-.6787-1.8587-.2327-.6178-.4433-1.2577-.6815-1.8726-.2382-.6122-.56-1.169-.8449-1.748s-.5651-1.2133-.8837-1.7978c-.3213-.5845-.6814-1.0832-.9889-1.6261-.3047-.5457-.6787-1.1662-1.0665-1.723-.3906-.56-.7507-1-1.1247-1.5042s-.7978-1.097-1.2327-1.6206-.8421-.9335-1.266-1.3629c-.421-.4266-.8919-1.0055-1.36-1.482-.4709-.4765-.9335-.8532-1.4017-1.2743-.4709-.421-.9751-.92-1.4931-1.3629-.5152-.44-1.0416-.7811-1.5568-1.169-.518-.3878-1.0361-.8033-1.579-1.1662-.5457-.36-1.1579-.6787-1.7424-1.061-.5873-.3822-1.0638-.6814-1.615-.9723-.5513-.2936-1.2383-.6011-1.8643-.9s-1.1164-.5651-1.6954-.8089c-.5789-.2465-1.3629-.5041-2.0415-.7479-.6815-.2465-1.1247-.4377-1.7037-.62-.7756-.2382-1.5707-.41-2.3629-.6067-.518-.1219-1.0139-.2853-1.5374-.3933-.8366-.1718-1.6954-.266-2.5458-.3906-.5042-.0665-.9862-.1773-1.49-.2244a41.5083,41.5083,0,0,0-4.1524-.2105,40.8875,40.8875,0,0,0-40.8485,40.8485H278.7549V234.4612H353.64a6.797,6.797,0,0,0,4.8117-1.9945l17.6541-17.6542a218.31,218.31,0,0,1,21.5822,11.8064,6.83,6.83,0,0,0,2.64.9668l41.8153,5.97Z"/>
    </g>
    <g id="duomo">
      <path d="M107.666,370.332V340.999a12.6665,12.6665,0,1,0-25.333,0v29.333a4,4,0,0,0,4,4h17.333A4,4,0,0,0,107.666,370.332Zm-8-4H90.333V340.999a4.6665,4.6665,0,1,1,9.333,0Z"/><path d="M177.782,370.332V340.999a12.6665,12.6665,0,1,0-25.333,0v29.333a4,4,0,0,0,4,4h17.333A4,4,0,0,0,177.782,370.332Zm-8-4h-9.333V340.999a4.6665,4.6665,0,1,1,9.333,0Z"/><path d="M156.449,298.406h17.333a4,4,0,0,0,4-4V265.073a12.6665,12.6665,0,1,0-25.333,0v29.333A4,4,0,0,0,156.449,298.406Zm4-33.333a4.6665,4.6665,0,1,1,9.333,0v25.333h-9.333Z"/><path d="M256.333,275.073a16.6853,16.6853,0,0,0-16.666,16.667v25.333a4,4,0,0,0,4,4H269a4,4,0,0,0,4-4V291.74A16.6849,16.6849,0,0,0,256.333,275.073Zm8.668,38H247.668V291.74a8.6665,8.6665,0,1,1,17.333,0Z"/><path d="M274.616,264.122l-17.039-5.591a4,4,0,0,0-2.495,0l-17.031,5.591a4,4,0,0,0,2.495,7.602l15.784-5.182,15.792,5.182a4,4,0,0,0,2.494-7.602Z"/><path d="M206,314.271a4,4,0,0,0,4-4V246.392a4,4,0,0,0-8,0v63.879A4,4,0,0,0,206,314.271Z"/><path d="M430.333,370.332V340.999a12.6665,12.6665,0,1,0-25.333,0v29.333a4,4,0,0,0,4,4h17.333A4,4,0,0,0,430.333,370.332Zm-8-4H413V340.999a4.6665,4.6665,0,1,1,9.333,0v25.333Z"/><path d="M360.218,370.332V340.999a12.667,12.667,0,1,0-25.334,0v29.333a4,4,0,0,0,4,4h17.334A4,4,0,0,0,360.218,370.332Zm-8-4h-9.334V340.999a4.667,4.667,0,1,1,9.334,0v25.333Z"/><path d="M338.884,298.406h17.334a4,4,0,0,0,4-4V265.073a12.667,12.667,0,0,0-25.334,0v29.333A4,4,0,0,0,338.884,298.406Zm4-33.333a4.667,4.667,0,0,1,9.334,0v25.333h-9.334V265.073Z"/><path d="M481,412.366V248.999a4,4,0,0,0-4-4h-4V158.332a4,4,0,0,0-8,0v86.667H452.333V158.332a4,4,0,1,0-8,0v86.667h-4a4,4,0,0,0-4,4v24.175L429,266.375v-28.71a4,4,0,1,0-8,0v21.292l-8.667-8.036V222.332a4,4,0,1,0-8,0v21.172L399,238.559V189.664a4,4,0,0,0-4-4h-8.334v-62a4,4,0,1,0-8,0v62h-8.333a4,4,0,0,0-4,4v18.6L361,203.319V174.332a4,4,0,0,0-8,0v21.57l-8.667-8.036V158.999a4,4,0,1,0-8,0v21.449L329,173.649V140.332a4,4,0,0,0-4-4h-4V56.335a4,4,0,1,0-8,0v79.997H300.33V56.335a4,4,0,1,0-8,0v79.997h-3.568L277,125.425V97.665a4,4,0,0,0-8,0v20.342l-8.667-8.037V82.332a4,4,0,1,0-8,0V109.97l-8.667,8.037V97.665a4,4,0,0,0-8,0v27.761l-11.762,10.906h-3.568V56.335a4,4,0,1,0-8,0v79.997h-12.67V56.335a4,4,0,0,0-8,0v79.997h-4a4,4,0,0,0-4,4v33.317l-7.333,6.799V158.999a4,4,0,0,0-8,0v28.867l-8.667,8.036v-21.57a4,4,0,0,0-8,0V203.32l-5.333,4.944v-18.6a4,4,0,0,0-4-4H134v-62a4,4,0,1,0-8,0v62h-8.334a4,4,0,0,0-4,4v48.895l-5.333,4.944V222.331a4,4,0,0,0-8,0V250.92l-8.667,8.036V237.664a4,4,0,0,0-8,0v28.71l-7.333,6.799V248.998a4,4,0,0,0-4-4h-4V158.331a4,4,0,0,0-8,0v86.667H47.667V158.331a4,4,0,0,0-8,0v86.667h-4a4,4,0,0,0-4,4V412.364A3.99,3.99,0,0,0,28,416.332v38a4,4,0,0,0,4,4H480.667a4,4,0,0,0,4-4v-38A3.9863,3.9863,0,0,0,481,412.366ZM444.333,252.999h10.333v59.879a4,4,0,0,0,8,0V252.999H473V412.332H462.666V352.453a4,4,0,0,0-8,0v59.879H444.333ZM399,325.121l18.671-10.912,18.662,10.912v58.845A54.2008,54.2008,0,0,0,399,383.964V325.121Zm37.333-9.268-16.643-9.731a4.0036,4.0036,0,0,0-4.038,0L399,315.854V299.665h37.333ZM399,412.473V392.598a46.0984,46.0984,0,0,1,37.333.002v19.765a3.988,3.988,0,0,0-3.667,3.967v34H402v-34A3.9909,3.9909,0,0,0,399,412.473Zm37.333-128.389v7.581H399V249.47Zm-62-90.419H391V412.332H374.333ZM306.667,348.453a4,4,0,0,0-4,4v59.879H292.334v-268h10.333v59.879a4,4,0,0,0,8,0V144.332H321v268H310.666V352.453A3.9993,3.9993,0,0,0,306.667,348.453Zm-50.334,33.879a16.6853,16.6853,0,0,0-16.666,16.667v51.333H232v-34a3.988,3.988,0,0,0-3.667-3.967V369.899a41.2378,41.2378,0,0,1,56,0v42.466a3.988,3.988,0,0,0-3.667,3.967v34H273V398.999A16.6842,16.6842,0,0,0,256.333,382.332Zm0-265.161,28,25.964v10.53h-56v-10.53Zm28,118.094H273V185.857a16.6665,16.6665,0,0,0-33.333,0v49.408H228.333V161.664h56Zm-19.332,0H247.668V185.857a8.6665,8.6665,0,0,1,17.333,0Zm-36.668,8h56v81.733h-56V243.265Zm0,89.734h56v26.667a49.306,49.306,0,0,0-56,0V332.999ZM329,325.053l18.556-10.845,18.777,10.98v58.787a54.1893,54.1893,0,0,0-37.333-.02Zm37.333-9.132-16.758-9.799a4.0036,4.0036,0,0,0-4.038,0L329,315.788V243.266h37.333ZM329,412.366V392.587a46.1065,46.1065,0,0,1,37.333.024v19.862a3.9909,3.9909,0,0,0-3,3.858v34H332.666v-34A3.9845,3.9845,0,0,0,329,412.366Zm37.333-193.191v16.091H329V184.56ZM191.667,144.332H202v59.879a4,4,0,0,0,8,0V144.332h10.333v268H210V352.453a4,4,0,0,0-8,0v59.879H191.667v-268ZM146.334,325.188l18.777-10.98,18.556,10.845v58.901a54.2008,54.2008,0,0,0-37.333.02Zm37.333-9.4-16.538-9.666a4.0012,4.0012,0,0,0-4.038,0l-16.758,9.799V243.266h37.333v72.522Zm-37.333,96.685V392.611a46.1025,46.1025,0,0,1,37.333-.024v19.778A3.9888,3.9888,0,0,0,180,416.332v34H149.334v-34A3.992,3.992,0,0,0,146.334,412.473Zm37.333-227.914v50.706H146.334v-16.09Zm-62.001,9.106h16.667V412.332H121.666ZM76.333,325.121l18.662-10.912,18.671,10.912v58.844a54.2065,54.2065,0,0,0-37.333.001Zm37.333-9.266-16.653-9.733a4.0012,4.0012,0,0,0-4.038,0l-16.642,9.731V299.665h37.333Zm-37.333,96.51V392.6a46.1024,46.1024,0,0,1,37.333-.002v19.875a3.9909,3.9909,0,0,0-3,3.858v34H80v-34A3.9878,3.9878,0,0,0,76.333,412.365Zm37.333-162.896v42.195H76.333v-7.58Zm-73.999,3.53H50v59.879a4,4,0,0,0,8,0V252.999H68.333V412.332H58V352.453a4,4,0,0,0-8,0v59.879H39.667ZM36,450.332v-30H72v30Zm82.666,0v-30h22.667v30Zm69.334,0v-30h36v30Zm59.667,0V398.999a8.6665,8.6665,0,1,1,17.333,0v51.333Zm41,0v-30h36v30Zm82.666,0v-30H394v30Zm69.334,0v-30h36v30Z"/><path d="M310.667,246.392a4,4,0,0,0-8,0v63.879a4,4,0,0,0,8,0Z"/>
    </g>
    <g id="form">
      <path d="M451.8249,131.4391l-10.6409-3.3255a33.6982,33.6982,0,0,0-8.6456-1.33c-11.9712,0-22.6121,7.9805-26.6028,19.2866L399.95,164.0262V150.0606a8.2106,8.2106,0,0,0-2.66-5.3209L288.22,38.9953A7.1849,7.1849,0,0,0,283.5643,37H70.0794a6.2829,6.2829,0,0,0-6.65,6.65V64.267H38.8217a6.2829,6.2829,0,0,0-6.65,6.65V469.29a6.2829,6.2829,0,0,0,6.65,6.65h323.22a6.283,6.283,0,0,0,6.65-6.65V448.6729h24.6075a6.2828,6.2828,0,0,0,6.65-6.65V352.2394l18.6214-25.2726.6651-1.9953,49.88-158.95C474.437,151.3908,466.4565,136.0941,451.8249,131.4391Zm-161.61-71.827L377.3374,143.41H290.2145ZM355.3913,462.64H45.472V77.5684H63.4283V442.0227a6.2829,6.2829,0,0,0,6.65,6.65H355.39V462.64Zm31.9228-27.2671H76.73V50.3014H276.9131v99.7592a6.2829,6.2829,0,0,0,6.65,6.65h103.75v49.88L356.0555,305.02v1.9953l1.33,84.4633a6.3867,6.3867,0,0,0,4.6558,5.9852c2.66.6651,5.9851,0,7.3154-2.6605l17.9563-23.9423v64.5116Zm-17.292-64.5116-1.33-55.2,33.2531,10.6409Zm87.1237-208.8291-47.8847,152.3-38.5739-12.6363,47.8847-151.6345c2.66-7.3154,10.6409-11.9712,17.9563-9.3107l10.6409,3.3255C455.1505,146.07,459.8054,154.7164,457.1458,162.0317Z"/><path d="M121.9539,156.7108h95.7694a6.2828,6.2828,0,0,0,6.65-6.65V82.2242a6.2828,6.2828,0,0,0-6.65-6.65H121.9539a6.2829,6.2829,0,0,0-6.65,6.65v67.8364A7.1517,7.1517,0,0,0,121.9539,156.7108Zm6.6512-67.8363H211.073v54.5349H128.6051Z"/><path d="M108.6534,219.2271H310.8322a6.65,6.65,0,0,0,0-13.3H108.6534a6.65,6.65,0,1,0,0,13.3005Z"/><path d="M108.6534,267.7769H310.8322a6.65,6.65,0,0,0,0-13.3H108.6534a6.65,6.65,0,1,0,0,13.3005Z"/><path d="M108.6534,316.3258H310.8322a6.65,6.65,0,0,0,0-13.3H108.6534a6.65,6.65,0,1,0,0,13.3005Z"/><path d="M316.8173,358.2254a6.2829,6.2829,0,0,0-6.65-6.65H108.6534a6.65,6.65,0,1,0,0,13.3005H310.8322C314.1569,364.8757,316.8173,361.55,316.8173,358.2254Z"/><path d="M338.7643,400.124H238.34a6.65,6.65,0,0,0,0,13.3005h99.7592a6.2829,6.2829,0,0,0,6.65-6.65C344.75,402.7845,342.09,400.124,338.7643,400.124Z"/>
    </g>
    <g id="green-hand">
      <path d="M254.4791,474.91a116.6249,116.6249,0,0,1-46.4642-9.5964l-70.3044-30.5623a266.6014,266.6014,0,0,0-79.93-20.83l-23.0876-2.3088A7.4283,7.4283,0,0,1,28,404.2187V331.7969a7.4193,7.4193,0,0,1,1.4881-4.456c1.7263-2.3087,43.1053-56.3668,106.3133-42.3016a268.4294,268.4294,0,0,1,81.9247,33.6959,82.7186,82.7186,0,0,0,43.6878,12.2156h70.3043A33.7694,33.7694,0,0,1,360.4438,346.98l60.5506-69.76a64.2306,64.2306,0,0,1,51.052-25.2772H476.57a7.4322,7.4322,0,0,1,6.803,10.4212l-54.7639,124.46a97.572,97.572,0,0,1-65.2106,54.9977l-9.6347,2.4066-56.0479,22.42A116.5814,116.5814,0,0,1,254.4791,474.91ZM42.8645,397.4922,59.26,399.1334a281.5981,281.5981,0,0,1,84.3823,21.9906l70.3,30.5623a102.2342,102.2342,0,0,0,78.26,1.1565L348.7086,430.24a7.6374,7.6374,0,0,1,.961-.3061L359.7932,427.4a82.5939,82.5939,0,0,0,55.21-46.5621l49.9508-113.52a49.6761,49.6761,0,0,0-32.3991,19.2268L365.478,363.8516c.0085.2891.0127.574.0127.8674a33.8077,33.8077,0,0,1-33.7682,33.7682h-98.09a118.2623,118.2623,0,0,0-37.45,6.0759l-2.73-6.9306-2.3088-7.0623.3785-.1233a133.0143,133.0143,0,0,1,42.11-6.8242h98.09a18.908,18.908,0,0,0,0-37.816H261.4181a97.5637,97.5637,0,0,1-51.52-14.4478,253.5573,253.5573,0,0,0-77.3115-31.8166C84.72,288.9255,50.2755,325.6615,42.8687,334.4245v63.0677Z"/><path d="M320.6549,250.2634c-11.4289,0-24.244-3.5291-38.3517-10.5829a7.4748,7.4748,0,0,1-3.6736-4.1455c-.574-1.6115-13.8525-39.8059,7.2494-68.0509,15.3365-20.5322,44.1725-29.78,85.7556-27.4627a7.42,7.42,0,0,1,7.0028,7.0495c.1488,2.9508,3.2144,72.6-32.3013,95.79A45.936,45.936,0,0,1,320.6549,250.2634Zm-28.8743-22.5093c19.52,9.1542,35.1246,10.0514,46.4345,2.6659,21.0594-13.7548,25.6131-54.5853,25.7237-75.836-32.582-.7951-54.7639,6.5478-66.1546,21.7907C284.2293,194.5259,289.4974,219.4927,291.7806,227.7541Z"/><path d="M207.0114,152.9c-13.1764,0-28.3768-2.8232-41.6426-12.5387-22.5008-16.4887-32.8413-47.88-30.7409-93.2984a7.4347,7.4347,0,0,1,6.9858-7.075c3.2144-.1829,79.2971-4.2434,104.8974,34.1849,11.9222,17.8875,10.9443,41.3152-2.8955,69.6453a7.42,7.42,0,0,1-4.1115,3.7118A102.6108,102.6108,0,0,1,207.0114,152.9ZM236.94,140.5571h0ZM149.2543,54.61c-.642,36.3788,7.7214,61.1756,24.8946,73.7611,20.5619,15.0643,48.6369,8.661,57.4638,6.0887,10.0981-21.9141,10.9527-39.4105,2.5341-52.047C218.5,58.9258,172.614,54.3338,149.2543,54.61Z"/><path d="M265.045,343.1961c-.2339,0-.4677-.0128-.7058-.034a7.43,7.43,0,0,1-6.7222-7.7724q.6568-13.1127,2.2024-24.89c3.0911-52.5869,1.4967-175.0488-75.9295-208.9275a7.43,7.43,0,1,1,5.9568-13.6144c45.6266,19.9624,74.3309,69.6623,82.9919,143.7253.7781,6.6371,1.3606,13.1807,1.7943,19.5543,20.3919-51.5282,51.5877-69.7347,53.4458-70.7764a7.429,7.429,0,0,1,7.3046,12.9384c-.7865.4592-48.6241,29.1677-60.6314,117.7-.9141,15.1451-2.2322,24.801-2.3555,25.6854A7.4285,7.4285,0,0,1,265.045,343.1961Z"/>
    </g>
    <g id="hand-gear">
      <path d="M251.36,140.8562a7.999,7.999,0,0,0-7.3514-4.8475h-3.0507a84.7133,84.7133,0,0,0,9.1052-57.5572,79.8734,79.8734,0,0,0-101.2552-58.975,8,8,0,0,0-3.3358,13.3356l33.6007,33.6007a7.995,7.995,0,0,1,0,11.2458L161.6313,95.1a8.002,8.002,0,0,1-11.2458,0l-37.0381-37.042a8,8,0,0,0-12.8,2.082,79.809,79.809,0,0,0,13.1442,90.5485,83.9158,83.9158,0,0,1,25.0775,41.3192H116.0114a23.59,23.59,0,0,0-14.0973,4.664,24.3783,24.3783,0,0,0-5.8085,5.9373,23.791,23.791,0,0,0-3.6249,18.0621c.1055.5273.3047,1.0077.4414,1.5273a24.7442,24.7442,0,0,0,.8789,2.8319c.2344.5781.5469,1.0977.8008,1.6484a24.5813,24.5813,0,0,0,1.2578,2.32c.3515.5351.7577,1.0234,1.1523,1.5351.3906.5117.7031,1.0234,1.1171,1.4882-.3593.3946-.6132.84-.9414,1.25-.457.582-.9374,1.1523-1.3359,1.7734a23.2493,23.2493,0,0,0-1.3866,2.5468c-.2227.4531-.4883.8867-.68,1.3593a24.0817,24.0817,0,0,0-1,3.1992c-.1015.3906-.2461.8007-.3281,1.1523a24.3731,24.3731,0,0,0-.4453,4.703,23.67,23.67,0,0,0,.4687,4.6639c.1055.5274.3047,1.0078.4414,1.5273a24.7458,24.7458,0,0,0,.8789,2.832c.2344.5781.5469,1.0976.8008,1.6484a24.5813,24.5813,0,0,0,1.2578,2.32c.3515.5351.7577,1.0234,1.1523,1.5351.3906.5117.7031,1.0234,1.1171,1.4882a14.1429,14.1429,0,0,0-.9414,1.25c-.457.582-.9374,1.1523-1.3359,1.7734a23.2493,23.2493,0,0,0-1.3866,2.5468c-.2227.4531-.4883.8867-.68,1.3593a24.0771,24.0771,0,0,0-1,3.1992c-.1015.3906-.2461.7617-.3281,1.1523a24.3731,24.3731,0,0,0-.4453,4.703,23.67,23.67,0,0,0,.4687,4.6639c.1055.5274.3047,1.0078.4414,1.5273a24.752,24.752,0,0,0,.8789,2.832c.2344.5781.5469,1.0976.8008,1.6484a24.58,24.58,0,0,0,1.2578,2.32c.3515.5352.7577,1.0235,1.1523,1.5352.3906.5117.7031,1.0234,1.1171,1.4882a14.1429,14.1429,0,0,0-.9414,1.25c-.457.582-.9374,1.1523-1.3359,1.7734a23.2493,23.2493,0,0,0-1.3866,2.5468c-.2227.4531-.4883.8867-.68,1.3593a24.08,24.08,0,0,0-1,3.1991c-.1015.3907-.2461.7617-.3281,1.1524a24.3731,24.3731,0,0,0-.4453,4.703,23.9981,23.9981,0,0,0,23.9994,23.9994h21.5971a66.7349,66.7349,0,0,1-4.32,12c-2.2539,4.6874-4.664,9.2732-7.0545,13.8161-11.199,21.2729-22.7416,43.28-16.4059,71.799a79.8349,79.8349,0,0,0,61.5961,60.725A81.503,81.503,0,0,0,187.9431,496a79.5426,79.5426,0,0,0,23.1987-3.4726,8,8,0,0,0,3.328-13.3122L180.873,445.6179a7.997,7.997,0,0,1,0-11.2653l17.3511-17.4214a8.211,8.211,0,0,1,11.3122,0l36.96,37.0381a7.9955,7.9955,0,0,0,12.7966-2.0742,79.5179,79.5179,0,0,0-13.0622-90.5484,113.5319,113.5319,0,0,1-19.4057-25.3431H420.0036v-16H276.0073V208.0068H420.0036v-16H273.2769Zm-31.4328,167.316.082-66.0139a63.8879,63.8879,0,0,0,39.999,21.2963V320.004H221.2314A58.4769,58.4769,0,0,1,219.9267,308.1722Zm40.081-106.5246v45.6942a48.074,48.074,0,0,1-39.999-47.3348V176.0076a8,8,0,0,0-8-8h-16a24.0464,24.0464,0,0,1-22.6322-16h65.3577ZM164.01,208.0068a8,8,0,0,1,0,16H116.0114a8.0013,8.0013,0,0,1-7.3865-11.0622,8.3507,8.3507,0,0,1,1.84-2.6406,7.2929,7.2929,0,0,1,2.4726-1.6718,7.8379,7.8379,0,0,1,3.0742-.625Zm-47.9988,79.998a8.0013,8.0013,0,0,1-7.3865-11.0622,8.3507,8.3507,0,0,1,1.84-2.6406,7.2929,7.2929,0,0,1,2.4726-1.6718,7.8361,7.8361,0,0,1,3.0742-.625H164.01a8,8,0,0,1,0,16ZM164.01,240.006a8,8,0,0,1,0,16H116.0114a8.0013,8.0013,0,0,1-7.3865-11.0622,8.3507,8.3507,0,0,1,1.84-2.6406,7.2929,7.2929,0,0,1,2.4726-1.6718,7.8361,7.8361,0,0,1,3.0742-.625Zm-55.9986,71.9982a7.995,7.995,0,0,1,.6133-3.0625,8.3514,8.3514,0,0,1,1.84-2.6405,7.2915,7.2915,0,0,1,2.4726-1.6718,7.8361,7.8361,0,0,1,3.0742-.625H164.01a8,8,0,0,1,0,16H116.0114A8,8,0,0,1,108.0116,312.0042ZM251.9259,416.0015a62.51,62.51,0,0,1-2.6718,18.0894l-28.39-28.4876a24.5879,24.5879,0,0,0-33.9679,0L169.553,423.0248a23.9954,23.9954,0,0,0,0,33.87l22.9017,22.8979a63.9372,63.9372,0,0,1-67.0295-49.7175c-5.0624-22.8,4.2147-40.4482,14.9606-60.8891,2.4726-4.7108,4.9686-9.4451,7.32-14.3356a82.278,82.278,0,0,0,6.3983-18.8862h9.906a23.8945,23.8945,0,0,0,17.7573-39.999,23.6316,23.6316,0,0,0,0-31.9992,23.6316,23.6316,0,0,0,0-31.9992,23.8968,23.8968,0,0,0-17.7573-39.96h-9.0233A97.2352,97.2352,0,0,0,125.21,139.5789,63.8357,63.8357,0,0,1,110.617,77.932l28.4563,28.48a24.0027,24.0027,0,0,0,33.87,0l17.441-17.441a23.9954,23.9954,0,0,0,0-33.87l-22.894-22.9213a65.2557,65.2557,0,0,1,17.773,1.1914,64.4547,64.4547,0,0,1,49.1824,48.5456c4.3514,19.4526-1.7344,35.1085-11.3513,54.0924H164.01a8,8,0,0,0-8,8,40.0435,40.0435,0,0,0,39.9989,39.9989h8v9.68l-.082,114.4775a73.9066,73.9066,0,0,0,3.3046,22.1674,107.8789,107.8789,0,0,0,27.472,42.0888A63.4741,63.4741,0,0,1,251.9259,416.0015Z"/>
    </g>
    <g id="old-car">
      <path d="M421.8046,212.8016l-.0067-.0066-.6414-.4828a6.3351,6.3351,0,1,0-7.6085,10.1314l.5688.43.0033.0033A102.9768,102.9768,0,0,1,455.029,305.399v3.1842h-2.3575v-1.6467a62.2,62.2,0,0,0-62.1306-62.1305H375.8a62.2,62.2,0,0,0-62.1272,62.1305v1.6467h-6.9141a6.3371,6.3371,0,0,0,0,12.6741h30.93a45.8187,45.8187,0,0,0,90.964,0h28.4861A10.574,10.574,0,0,0,467.7,310.6961V305.399A115.5487,115.5487,0,0,0,421.8046,212.8016ZM383.1705,348.8573a33.1584,33.1584,0,1,1,33.1584-33.1583A33.1964,33.1964,0,0,1,383.1705,348.8573Zm56.8268-40.2708h-11.55a45.8322,45.8322,0,0,0-90.554,0h-11.55v-1.65A49.5116,49.5116,0,0,1,375.8,257.48h14.7408a49.5138,49.5138,0,0,1,49.4564,49.4564Z"/><path d="M108.5692,315.699a9.7759,9.7759,0,1,1-9.7743-9.7743A9.7745,9.7745,0,0,1,108.5692,315.699Z"/><path d="M392.9448,315.699a9.7743,9.7743,0,1,1-9.7743-9.7743A9.7724,9.7724,0,0,1,392.9448,315.699Z"/><path d="M253.5428,280.841H293.311a23.3083,23.3083,0,0,0,23.2849-23.2816V201.7246h34.7554a103.105,103.105,0,0,1,39.173,7.6547,6.3362,6.3362,0,1,0,4.7913-11.7318,115.24,115.24,0,0,0-30.8438-7.86v-4.659a21.905,21.905,0,0,0-21.88-21.88,6.294,6.294,0,0,0-2.05.3439l-74.4873,25.4607h-51.94l16.9165-27.3851a6.3353,6.3353,0,1,0-10.7795-6.66L199.219,189.0538H99.1719a21.8128,21.8128,0,0,0-20.2892,13.8677H73.2086A15.1786,15.1786,0,0,0,58.048,218.0822v7.6018a15.1764,15.1764,0,0,0,15.1606,15.1607h4.18v4.1034A46.5459,46.5459,0,0,0,34.3,291.303v19.3931a10.574,10.574,0,0,0,10.5613,10.5612H53.313a45.8187,45.8187,0,0,0,90.9639,0H277.6146a6.3354,6.3354,0,0,0,0-12.6708H231.8979c-4.3548-2.9825-16.9627-11.6325-31.019-21.3737A44.7659,44.7659,0,0,0,215.1964,268.57a6.3362,6.3362,0,1,0-11.7251-4.8077,32.1056,32.1056,0,0,1-13.7587,15.6864c-6.4445-4.4937-12.82-8.9642-18.5036-13.0015-12.5882-8.9278-21.2679-14.3208-29.4682-17.4918a32.1178,32.1178,0,0,1,62.524-7.3968,6.3371,6.3371,0,0,0,12.0426-3.9514,44.7924,44.7924,0,0,0-86.96,8.0945,99.9172,99.9172,0,0,0-14.6911-.8927H90.059V210.8375a9.1218,9.1218,0,0,1,9.1129-9.1129H230.2611v55.8348A23.3076,23.3076,0,0,0,253.5428,280.841ZM73.2086,228.1739a2.4908,2.4908,0,0,1-2.4865-2.49v-7.6018a2.4908,2.4908,0,0,1,2.4865-2.49h4.18v12.5816ZM98.7949,348.8573a33.1584,33.1584,0,1,1,33.1584-33.1583A33.1964,33.1964,0,0,1,98.7949,348.8573ZM114.6566,257.48c17.5579,0,24.6836,1.8979,49.2151,19.3038,14.1422,10.0321,32.4937,22.7393,45.6473,31.8026H144.0719a45.8341,45.8341,0,0,0-90.5572,0h-6.54V291.303A33.86,33.86,0,0,1,80.7972,257.48Zm228.8581-81.5138a9.2245,9.2245,0,0,1,8.2863,9.1625v3.9283c-.1488,0-.3009-.0033-.45-.0033H305.2345Zm-39.6161,25.7583v55.8348a10.5979,10.5979,0,0,1-10.5876,10.5877H253.5428a10.5972,10.5972,0,0,1-10.5844-10.5877V201.7246Z"/><path d="M257.7719,227.1819h8.974a6.3487,6.3487,0,0,0,0-12.6973h-8.974a6.3487,6.3487,0,1,0,0,12.6973Z"/>
    </g>
    <g id="search-car">
      <path d="M383.576,344.9055a6.7256,6.7256,0,0,0-9.5115,0l0,0-9.8233,9.8233-23.58-23.58a180.5114,180.5114,0,1,0-9.512,9.512l23.58,23.58-9.8233,9.8232a6.7257,6.7257,0,0,0,0,9.5116l0,0,92.9839,92.9849a25.0127,25.0127,0,0,0,35.3289,0l3.3426-3.3427a25.0126,25.0126,0,0,0,0-35.3288ZM326.4888,326.49a166.9046,166.9046,0,1,1-.0079-236.0433l.004.004h0a166.8986,166.8986,0,0,1,.005,236.03l-.005.005ZM467.048,463.7063l-3.3417,3.3417a11.54,11.54,0,0,1-16.3049,0L359.1735,378.82,378.82,359.1735,467.048,447.4A11.5433,11.5433,0,0,1,467.048,463.7063Z"/><path d="M110.7158,208.9179h-.1422a19.2162,19.2162,0,1,0,.14,38.4322h.1422a19.32,19.32,0,0,0,19.2757-19.2843v-.0173A19.3813,19.3813,0,0,0,110.7158,208.9179Zm.0423,24.9809h-.0432a5.7649,5.7649,0,1,1-.0442-11.53h.0432a5.7649,5.7649,0,0,1,.0442,11.53Z"/><path d="M306.9566,207.9571h-.1422a18.9681,18.9681,0,0,0-19.1107,18.8246q-.0012.1593,0,.3184a19.4084,19.4084,0,0,0,19.245,19.2892h.1479a19.0987,19.0987,0,0,0,13.5743-5.87,18.8874,18.8874,0,0,0,5.54-13.5473A19.1891,19.1891,0,0,0,306.9566,207.9571Zm.023,24.7321a5.7161,5.7161,0,0,1-4.1084-1.6728,5.5631,5.5631,0,0,1,4.0354-9.6081h.0442a5.4584,5.4584,0,0,1,5.7272,5.1756q.0077.15.0069.301a5.7177,5.7177,0,0,1-5.6345,5.8l-.07.0006Z"/><path d="M359.308,176.874a46.5476,46.5476,0,0,0-2.3569-11.4787c-2.9314-8.5858-11.8227-14.1239-22.69-14.1239h-.2382c-5.5045,0-15.0213.0961-20.3854.12l-9.2593-16.8746c-7.23-12.7441-17.79-27.4445-35.5057-27.4445h-.2373l-120.3592,1.0012c-14.4822.1057-27.1744,10.0885-35.7554,28l-9.38,16.9409c-5.3806.0289-15.0578.0961-20.6084.1384-10.9753.0817-19.8887,5.7562-22.7192,14.4476a46.4731,46.4731,0,0,0-2.1858,11.4951,6.4544,6.4544,0,0,0,1.8889,4.8338,6.6129,6.6129,0,0,0,4.8358,1.9293h.0615l9.3476.0394a32.252,32.252,0,0,0-7.2243,20.9792,7.2027,7.2027,0,0,0,.06.8744L74.0563,263.41a18.8469,18.8469,0,0,0,13.8231,17.526l.1182,16.0273A12.9113,12.9113,0,0,0,100.76,309.8025h.096l18.3572-.2143A12.8191,12.8191,0,0,0,131.89,296.6836l-.1124-15.3171,154.8915-1.153.1133,15.2912a12.3439,12.3439,0,0,0,3.8087,8.8529,12.5473,12.5473,0,0,0,8.9633,3.5233h.0961l18.3514.0144a12.6461,12.6461,0,0,0,12.678-12.6142c0-.034,0-.068,0-.1021l-.1182-16.0954a18.8914,18.8914,0,0,0,13.2533-17.6269l6.95-55.7325a6.9365,6.9365,0,0,0,.0518-.8821,31.6288,31.6288,0,0,0-7.844-20.7928l9.6724-.0749a6.7257,6.7257,0,0,0,6.6735-6.7775q-.0014-.1616-.01-.3229ZM124.391,142.4772c.0682-.122.1316-.247.1921-.3728,3.6175-7.6048,11.522-20.4882,23.8-20.5786L268.74,120.5237h.1287c8.5243,0,15.6525,6.2626,23.7723,20.5718l18.4888,33.5466-15.6775.2431A31.7257,31.7257,0,0,0,264.26,149.3479h-.2364a31.6414,31.6414,0,0,0-31.0417,26.0254l-127.3068.8887Zm157.1792,32.54-34.7024.2066a18.2284,18.2284,0,0,1,17.2589-12.4242h.1374a18.27,18.27,0,0,1,17.3022,12.2166ZM72.3585,172.5783q.1182-.4037.2518-.8119c.9742-2.9949,5.0922-5.1115,10.025-5.148,3.43-.026,8.434-.0557,13.0257-.0827l-3.2553,5.8715ZM101.44,296.1878l-.1076-14.6167,16.9967-.1259.1076,14.6177Zm198.7907-1.4642-.1076-14.6177,16.9967-.1249.1086,14.6177Zm30.1866-34.541a6.769,6.769,0,0,0-.0518.883,5.3242,5.3242,0,0,1-1.5537,3.7952,5.4864,5.4864,0,0,1-3.7721,1.7631L92.9,268.4878H92.86a5.5053,5.5053,0,0,1-5.3651-5.4766,9.344,9.344,0,0,0-.06-.9963l-7.451-55.57c.096-10.0336,6.76-16.2376,13.5147-16.7622a6.64,6.64,0,0,0,.7081.0231h.05l228.079-1.6574c.0336,0,.0673.0163.1018.0163a1.3955,1.3955,0,0,1,.1547.0058c8.899,0,14.5226,8.45,14.7647,16.4644Zm-6.1068-89.4462-3.262-5.9272c4.5965-.0192,9.6225-.0884,13.0747-.0884h.1287c4.8723,0,8.9615,2.0676,9.9713,5.0231.096.2757.1835.56.268.8311Z"/><path d="M244.5292,248.3109h-.05l-70.9814.4593a6.4989,6.4989,0,1,0-.3349,12.9934q.192.005.3839-.0014h.05l70.9815-.3257a6.5642,6.5642,0,0,0,.2211-13.1266Q244.6643,248.3077,244.5292,248.3109Z"/><path d="M176.827,235.82h.05a6.8641,6.8641,0,0,0,6.6767-6.9533l-.0855-11.6354a6.7257,6.7257,0,1,0-13.4513.0327l.0855,11.7132A6.87,6.87,0,0,0,176.827,235.82Z"/><path d="M155.35,210.84h-.051a6.6161,6.6161,0,0,0-6.6756,6.556q0,.0555,0,.111L148.709,229.1a6.7631,6.7631,0,0,0,6.7256,6.7256h.0509a6.7948,6.7948,0,0,0,6.6757-6.8745l-.0855-11.4894A6.6756,6.6756,0,0,0,155.35,210.84Z"/><path d="M262.2916,209.8787h-.049a6.69,6.69,0,0,0-6.676,6.7041l0,.05.0855,11.5489a6.7257,6.7257,0,0,0,6.7257,6.6776h.05a6.7189,6.7189,0,0,0,6.6769-6.7607l0-.0264-.0855-11.53A6.7132,6.7132,0,0,0,262.2916,209.8787Z"/><path d="M198.21,234.86h.0509a6.52,6.52,0,0,0,6.6739-6.3624q.0023-.0946.0018-.1893l-.0846-11.65a6.8158,6.8158,0,0,0-6.7256-6.7794h-.0509A6.8956,6.8956,0,0,0,191.4,216.87l.0845,11.4336a6.63,6.63,0,0,0,6.7015,6.5568Z"/><path d="M219.5982,234.86h.0509a6.5844,6.5844,0,0,0,6.6752-6.4923q.0009-.0687.0005-.1372l-.0855-11.6114a6.78,6.78,0,0,0-6.7257-6.74h-.05a6.8274,6.8274,0,0,0-6.6767,6.912l.0855,11.47a6.66,6.66,0,0,0,6.7212,6.5989Z"/><path d="M240.9867,234.86h.0509a6.6517,6.6517,0,0,0,6.6759-6.6273q0-.0405,0-.081l-.0855-11.572a6.7458,6.7458,0,0,0-6.7257-6.7006h-.0509a6.7583,6.7583,0,0,0-6.6757,6.8332l.0855,11.5095A6.6931,6.6931,0,0,0,240.9867,234.86Z"/>
    </g>
</svg>
