<svg xmlns="http://www.w3.org/2000/svg" width="1647.1763" height="251.6029" viewBox="0 0 1647.1763 251.6029"><defs><style>.cls-1{fill:none;stroke:#000;stroke-miterlimit:10;stroke-width:11px;}</style></defs><title>logo_inline_black</title><g id="text" data-name="Calque 2"><path d="M446.9058,85.4424l-3.7734,16.7119c7.8169-12.6685,24.2592-19.9463,38.8149-19.9463,12.6685,0,25.6069,5.93,27.2241,19.9463A53.7948,53.7948,0,0,1,551.49,81.9385c15.6338,0,29.65,7.2778,29.65,24.5288a62.5894,62.5894,0,0,1-1.6172,12.6684L553.9156,229.9194H510.25L533.97,127.4917a36.6911,36.6911,0,0,0,.539-5.6606c0-6.7383-4.3135-11.0513-11.0527-11.0513-9.9727,0-13.7461,8.0864-15.6328,16.4424l-23.72,102.6972H440.1675l23.9893-104.0449a28.4743,28.4743,0,0,0,.8091-5.3911c0-6.7383-5.1216-10.7817-11.3213-10.7817-9.7036,0-14.2857,7.5473-16.1729,16.1728L413.4825,229.9194H370.355l33.1538-144.477Z" transform="translate(0 -34.7419)"/><path d="M633.6988,167.9238c-2.1563,8.6255-4.8526,18.06-4.8526,26.4156,0,7.2778,6.47,9.7036,12.669,9.7036,11.8594,0,14.2861-9.1646,16.7119-20.7549h43.667c-7.2783,41.24-32.6152,50.4048-62.2656,50.4048-27.2246,0-52.292-8.895-52.292-38.2754,0-13.4776,9.165-59.3,18.3291-83.56,8.3554-22.1025,31.2676-29.9194,54.1787-29.9194,23.9892,0,52.292,5.6606,52.292,35.041,0,9.7036-5.66,34.7715-9.4336,50.9443Zm33.6933-26.4155c1.3477-6.4692,3.7735-15.6338,3.7735-19.6772,0-7.8165-4.8516-11.0513-12.13-11.0513-15.3643,0-15.9033,14.0166-19.4072,30.7285Z" transform="translate(0 -34.7419)"/><path d="M801.8941,139.3521c1.6172-5.93,3.7734-12.13,3.7734-18.33s-4.582-9.7037-10.5127-9.7037c-12.13,0-15.3642,8.6255-17.79,18.8682l-13.207,56.605a28.734,28.734,0,0,0-.81,6.7388c0,6.7387,4.8525,10.7817,11.5908,10.7817,12.3984,0,15.3643-13.4775,17.5205-24.5288H835.857c-5.6612,27.2241-14.8262,53.9092-61.4571,53.9092-25.0683,0-52.5615-9.1646-52.5615-38.8145,0-14.8252,6.4688-37.4668,10.5127-54.4482,2.1563-9.1646,4.043-18.5991,7.8164-27.4942,10.5117-25.3369,31.2676-30.728,56.6045-30.728,23.72,0,50.1358,8.895,50.1358,36.9277,0,7.0083-1.8868,13.4776-3.5039,20.2164Z" transform="translate(0 -34.7419)"/><path d="M933.7,139.3521c1.6171-5.93,3.7734-12.13,3.7734-18.33s-4.582-9.7037-10.5117-9.7037c-12.13,0-15.3643,8.6255-17.79,18.8682l-13.208,56.605a28.7907,28.7907,0,0,0-.8086,6.7388c0,6.7387,4.8516,10.7817,11.59,10.7817,12.3994,0,15.3642-13.4775,17.5205-24.5288h43.3974c-5.66,27.2241-14.8252,53.9092-61.457,53.9092-25.0674,0-52.5615-9.1646-52.5615-38.8145,0-14.8252,6.47-37.4668,10.5127-54.4482,2.1562-9.1646,4.043-18.5991,7.8164-27.4942,10.5127-25.3369,31.2676-30.728,56.6055-30.728,23.72,0,50.1357,8.895,50.1357,36.9277,0,7.0083-1.8877,13.4776-3.5049,20.2164Z" transform="translate(0 -34.7419)"/><path d="M995.1539,130.4565c6.2-25.0673,9.4345-33.4233,22.6425-40.1621,9.9727-5.1215,23.72-7.5473,38.8145-7.5473,24.7978,0,50.4053,6.2,50.4053,31.5371a67.1335,67.1335,0,0,1-2.4258,16.1723l-18.8682,81.6729a41.8005,41.8005,0,0,0-1.0781,7.8169c0,6.4692,2.1562,8.3559,4.043,9.9731h-49.0577l3.7735-15.0947c-9.7031,8.356-21.833,18.8682-38.8145,18.8682-2.9648,0-28.5722,0-28.5722-26.146,0-8.895,5.6611-34.2324,14.5556-44.4751s21.833-14.0161,72.2383-28.5718c1.3477-5.6606,3.2344-14.8252,3.2344-16.9814,0-7.5474-7.0078-8.0865-11.59-8.0865-12.13,0-14.2861,6.4693-18.3291,21.0244Zm61.457,31.8067c-9.7041,2.9648-22.1026,6.7388-27.2246,10.7817-7.0078,5.6607-8.8946,21.0249-8.8946,23.72,0,4.8521,2.1563,8.8951,9.4336,8.8951,7.5479,0,13.208-4.5821,17.79-8.6255Z" transform="translate(0 -34.7419)"/><path d="M1182.2154,85.4424l-3.7735,16.7119c7.8164-12.6685,24.2588-19.9463,38.8145-19.9463,12.6689,0,25.6064,5.93,27.2236,19.9463a53.7968,53.7968,0,0,1,42.3194-20.2158c15.6338,0,29.65,7.2778,29.65,24.5288a62.5882,62.5882,0,0,1-1.6182,12.6684l-25.6065,110.7837h-43.6669l23.7207-102.4277a36.6911,36.6911,0,0,0,.539-5.6606c0-6.7383-4.3125-11.0513-11.0517-11.0513-9.9727,0-13.7471,8.0864-15.6338,16.4424l-23.72,102.6972h-43.9365l23.99-104.0449a28.5181,28.5181,0,0,0,.8085-5.3911c0-6.7383-5.121-10.7817-11.3212-10.7817-9.7032,0-14.2862,7.5473-16.1729,16.1728l-23.9893,104.0449h-43.1279l33.1543-144.477Z" transform="translate(0 -34.7419)"/><path d="M1355.7994,229.9194h-42.5889l33.1543-144.477h42.8584Zm36.6582-157.9541h-42.8584L1357.147,39.62h42.8574Z" transform="translate(0 -34.7419)"/><path d="M1469.816,139.3521c1.6181-5.93,3.7744-12.13,3.7744-18.33s-4.583-9.7037-10.5127-9.7037c-12.13,0-15.3643,8.6255-17.79,18.8682l-13.208,56.605a28.7907,28.7907,0,0,0-.8086,6.7388c0,6.7387,4.8526,10.7817,11.5909,10.7817,12.3994,0,15.3642-13.4775,17.52-24.5288h43.3965c-5.66,27.2241-14.8243,53.9092-61.4561,53.9092-25.0684,0-52.5615-9.1646-52.5615-38.8145,0-14.8252,6.4687-37.4668,10.5117-54.4482,2.1572-9.1646,4.0439-18.5991,7.8174-27.4942,10.5127-25.3369,31.2676-30.728,56.6045-30.728,23.7207,0,50.1357,8.895,50.1357,36.9277,0,7.0083-1.8867,13.4776-3.5039,20.2164Z" transform="translate(0 -34.7419)"/><path d="M1631.5425,196.7651c-5.1211,15.0948-13.4775,36.3887-56.6045,36.3887-32.3457,0-53.1006-11.0513-53.1006-38.5449,0-17.52,12.4-64.1524,14.5557-71.43,4.8516-15.3643,14.2861-41.51,55.2568-41.51,21.5635,0,55.5264,3.504,55.5264,39.6231C1647.1763,136.3867,1635.5855,184.3662,1631.5425,196.7651Zm-26.9541-69.8125a28.3694,28.3694,0,0,0,.8086-5.6606c0-7.2774-5.1221-10.7817-11.5908-10.7817-11.5908,0-13.7471,9.9731-15.3643,16.4423l-13.4775,57.6831a39.24,39.24,0,0,0-1.0781,8.356c0,5.66,3.2344,11.0513,11.5908,11.0513,11.5908,0,14.0166-9.4341,16.1728-19.4073Z" transform="translate(0 -34.7419)"/></g><g id="icon" data-name="Calque 2"><path class="cls-1" d="M289.3445,191.0724V155.27c-19.5262-6.5025-31.8615-8.33-38.0706-22.3654v-.0111c-6.2328-14.0794,1.1827-23.6392,10.0173-41.0641L234.2669,66.5176c-18.4618,8.2195-28.7748,15.2315-43.8422,9.3826h-.0118c-15.0083-5.8267-16.9715-17.458-23.8784-35.6583H128.31c-6.8832,18.1116-8.8582,29.82-23.8784,35.6583H104.42c-15.0319,5.8489-25.2149-1.0856-43.8422-9.3826L33.5533,91.83c8.811,17.37,16.2619,26.9626,10.0173,41.0641C37.3379,146.9731,24.8369,148.823,5.5,155.27v35.8023c19.3014,6.4249,31.8379,8.297,38.0706,22.3653,6.2683,14.2013-1.3482,23.9937-10.0173,41.0641l27.0243,25.323c18.4736-8.2305,28.7866-15.2315,43.8422-9.3826h.0118l.063.0245a3.947,3.947,0,0,0,5.5172-3.402v-8.6691a36.9446,36.9446,0,0,0-14.116-28.7733c-16.9783-13.614-27.7325-33.8263-27.7325-56.3938.0089-20.4378,8.8637-38.871,23.1491-52.2512a79.8251,79.8251,0,0,1,18.28-12.8122l.0089,62.9837c13.3223,19.4606,62.4561,19.1933,75.6536,0v-62.992a80.2357,80.2357,0,0,1,18.2624,12.8122c14.2943,13.3885,23.158,31.8134,23.1669,52.2679C226.6756,195.7794,215.93,216,198.952,229.614a36.9689,36.9689,0,0,0-14.1159,28.7732l0,8.6814a3.9443,3.9443,0,0,0,5.5237,3.3986l.1482-.0582h.0118c14.9255-5.8046,25.0729,1.1188,43.7357,9.4269l27.0244-25.323c-8.7992-17.3141-16.262-26.9515-10.0292-41.053C257.483,199.38,270.0312,197.5083,289.3445,191.0724Z" transform="translate(0 -34.7419)"/></g></svg>
