<svg xmlns="http://www.w3.org/2000/svg" width="1328.7496" height="154.3027" viewBox="0 0 1328.7496 154.3027"><defs><style>.cls-1{fill:#32f9e1;}.cls-2{fill:#122049;}</style></defs><title>Mecccamico</title><g id="Calque_2" data-name="Calque 2"><g id="Calque_1-2" data-name="Calque 1"><g id="Mecccamico"><g id="W1"><path class="cls-1" d="M31.7994,87.135a.8289.8289,0,0,0,.0385.5451c-.1565.3458-.4742.1661-.72.2206-1.3683.0047-2.7368.0228-4.1049.0062-.4188-.0051-.4488.2191-.4457.5292.0139,1.3892.0108,2.7787.0417,4.1675.009.4042-.0871.5533-.5274.5558q-7.3095.0421-14.6187.1324c-.5064.0064-.6435-.1378-.6343-.64.0249-1.3484-.0244-2.6979-.0162-4.0468.0025-.42-.1285-.5595-.5585-.548-1.3886.0371-2.7787.0225-4.1676.0538-.3969.009-.522-.1221-.52-.5164.0083-1.3692-.0381-2.7389-.0156-4.1076.0082-.4987-.1769-.6118-.63-.6-1.3664.0353-2.7339.023-4.1.0589-.4451.0117-.5855-.1148-.5775-.5805.024-1.3887.0042-2.7789-.0318-4.1676C.2,77.7747.33,77.6534.75,77.6522c2.235-.0064,4.47-.0456,6.7048-.0672,2.6218-.0253,5.2435-.0574,7.8653-.0541.4974.0007.616-.1772.6057-.63-.0314-1.3689-.0165-2.7388-.0525-4.1074-.0112-.4239.1178-.5534.5414-.55,1.3621.0122,2.7246-.0293,4.0867-.0194.45.0032.6464-.1036.6312-.6047-.0408-1.348-.0428-2.6976-.03-4.0463.0039-.4272-.1471-.547-.5617-.5359-1.3452.0359-2.6923.0137-4.037.0611-.5159.0182-.7043-.1032-.6923-.6563.0287-1.328-.03-2.6578-.0173-3.9865.0046-.4977-.155-.6441-.6626-.6375-4.7693.0623-9.5392.0863-14.3084.1531-.6015.0084-.7879-.1356-.7743-.7566C.079,59.8082.0215,58.4,0,56.9918l.2017-.3071c1.5432-.0116,3.0862-.0261,4.6292-.0316.303-.001.4844-.0582.4745-.4315-.04-1.5231-.0561-3.0469-.0809-4.5705.0425-.1772.1914-.2371.3348-.3035,1.5394.16,3.0807.0118,4.6209.0322.2556.0034.2908-.1507.2874-.3529q-.038-2.2562-.0726-4.5124c.027-.4612.3743-.3858.6643-.3887q4.8307-.0477,9.6614-.09c1.63-.0149,3.261-.0158,4.8909-.0518.4422-.01.5944.1089.5867.5724-.0215,1.2876.0078,2.5761.0215,3.8642.0079.7488.0735.8134.8428.809,1.3082-.0076,2.6173,0,3.9242-.0479.41-.015.4751.1343.4757.4752.0022,1.3485.0437,2.6975.0205,4.0454-.0095.548.1386.7149.712.7093q25.27-.2457,50.5408-.4568c.5223-.0047,1.0446-.0226,1.567-.0344q2.1376-.0121,4.275-.0256c.2487-.002.4983-.0165.4793-.377-.056-1.06.05-2.1253-.0837-3.1838a9.7994,9.7994,0,0,0,.0362-1.2c-.0292-.3478.1351-.47.4153-.5415.034.02.068.06.1019.0595,1.4673-.0037,2.9346-.014,4.4019-.0152.2995,0,.3077-.1886.3042-.4029q-.0363-2.23-.0715-4.4593c.0222-.4463.3415-.4033.6487-.4059q5.856-.0483,11.712-.1032c.966-.0087,1.9324-.0029,2.8976-.0334.3746-.0118.5458.0731.5433.4882-.0082,1.3675.0421,2.7357.0131,4.1024-.0111.5261.1989.6671.6608.6605,1.3682-.02,2.7373-.0053,4.1043-.0527.4058-.0141.5058.04.4968.4731-.0289,1.3865.0133,2.7743.0156,4.1617.0007.4392.1949.6037.6283.5946,1.325-.0281,2.6511-.0163,3.9756-.0558.5181-.0155.6946.1385.6818.6817-.03,1.2869.0134,2.5754.0257,3.8634a1.7806,1.7806,0,0,1-.0805.7737c-.0444.0131-.089.0259-.1336.0387a.7535.7535,0,0,0-.1122-.0308c-.0159-.002-.0346.0176-.0523.0275a1.2419,1.2419,0,0,0-.2862-.0672c-4.8469.0394-9.6937.0875-14.5406.1168-.4249.0026-.4956.1838-.49.5421.0217,1.3878.01,2.7764.0452,4.1638.0116.4494-.1284.5966-.5787.5933-1.3872-.01-2.7747.0269-4.1621.0269-.3741,0-.5376.1-.527.5138q.0531,2.0814.0395,4.1642c-.003.4147.158.5068.5335.4988,1.3439-.0285,2.6891-.01,4.0322-.055.5335-.0178.741.11.7254.69-.0351,1.3066-.0015,2.6152.0209,3.9227.0039.2268-.1149.5689.321.5735,1.87.1013,3.74.0065,5.6092-.0023q4.6191-.0219,9.2379-.0924c.4147-.0058.5678.1167.5651.5444-.0087,1.4087.0071,2.8178.0362,4.2263.0067.3259-.07.5473-.3915.6492-.0708-.0322-.1416-.0933-.2122-.0929-1.4286.0078-2.8573.0287-4.2859.0315-.3384.0007-.3867.1739-.3827.4534.02,1.3683.0251,2.7368.0448,4.1051.0021.1405-.07.3384.1649.3922.0052.0716.01.1433.0152.2154-.0056-.0713.0044-.1763-.0936-.166-.1167.0122-.0835.1371-.1039.2184a.1975.1975,0,0,0-.114.032c-1.5632.0008-3.1265.007-4.69-.0022-.3214-.0018-.4108.1287-.4049.4328.03,1.5631.0448,3.1265.0648,4.69l-.0376.1281c-5.0128.0414-10.0257.0741-15.0383.1381-.5531.0071-.7189-.1338-.7066-.69.0281-1.2674-.0554-2.5378-.0094-3.8039.0235-.649-.21-.7679-.7908-.7448-1.2868.0509-2.5771.0149-3.8644.059-.4893.0167-.6125-.1488-.6074-.6148.0148-1.3485-.03-2.6976-.0228-4.0463.0022-.4209-.15-.5952-.5624-.5551-.1.01-.2012.0023-.3019.0032q-27.8424.2507-55.6849.5036c-1.0847.01-1.0266-.1694-1.01,1.0542.0016.12.0176.24.0269.36l.01.7748q.0059.5241.0117,1.0476Q31.7952,86.5122,31.7994,87.135Z" transform="translate(0 -35.6377)"/></g><g id="LTX0"><path class="cls-2" d="M163.2115,187.22V73.6147h27.8574V90.0464A38.0789,38.0789,0,0,1,203.5284,75.9q7.5622-5.0039,18.88-5.0054,12.2952,0,20.1855,5.4951a32.2335,32.2335,0,0,1,11.6978,15.7242q11.0991-21.219,34.6035-21.2193,17.409,0,26.17,11.1538,8.7584,11.1556,8.76,30.7408V187.22h-27.857V114.7476q0-21.1092-15.9961-21.11h-.2177a19.7011,19.7011,0,0,0-16.1592,7.6714q-6.1487,7.672-6.148,20.1855V187.22H229.59V114.7476q0-21.1092-16.105-21.11h-.2172a19.552,19.552,0,0,0-16.105,7.6714q-6.0952,7.672-6.0938,20.1855V187.22Z" transform="translate(0 -35.6377)"/><path class="cls-2" d="M351.356,130.1992a75.6336,75.6336,0,0,1,3.6949-24.32,55.7033,55.7033,0,0,1,10.3818-18.7163,45.6667,45.6667,0,0,1,16.1421-12.0244,50.6712,50.6712,0,0,1,20.98-4.2437,51.6555,51.6555,0,0,1,20.97,4.1348,47.9586,47.9586,0,0,1,16.1216,11.3716,49.1728,49.1728,0,0,1,10.2407,17.2475,64.5171,64.5171,0,0,1,3.54,21.6543V139.34h-73.125v7.5088q0,10.2291,6.7076,15.833a23.9688,23.9688,0,0,0,15.8735,5.6036q9.1611,0,14.9438-4.7872,5.78-4.7871,6.8726-13.4941h27.8569q-2.7238,18.9347-15.96,29.4356-13.2363,10.5028-34.041,10.5009a51.3222,51.3222,0,0,1-21.5777-4.3525A45.3314,45.3314,0,0,1,364.8887,173.4a54.4644,54.4644,0,0,1-10.0537-18.8262A80.4922,80.4922,0,0,1,351.356,130.1992Zm28.9453-12.5137h44.6153V113.66q0-9.3574-6.3272-15.2344t-16.0351-5.8765q-9.5991,0-15.9263,5.8765T380.3013,113.66Z" transform="translate(0 -35.6377)"/><path class="cls-2" d="M475.4078,131.07a82.1187,82.1187,0,0,1,3.5869-25.1914,54.02,54.02,0,0,1,10.2734-18.9341,44.7745,44.7745,0,0,1,16.0332-11.9155A51.617,51.617,0,0,1,526.39,70.8945a61.8547,61.8547,0,0,1,17.1026,2.3394,44.4068,44.4068,0,0,1,14.76,7.3452,37.9519,37.9519,0,0,1,10.6758,12.7861,49.211,49.211,0,0,1,5.0674,18.5533H546.1383q-1.0914-10.88-6.711-15.1255Q533.81,92.5486,525.3,92.5488A21.64,21.64,0,0,0,510.5709,97.99q-6.2182,5.4428-6.2178,16.7579v31.2309q0,10.4459,5.8906,16.377t15.2735,5.93q9.3809,0,14.7822-4.461,5.3994-4.4619,6.71-15.7793h27.8564a51.1521,51.1521,0,0,1-5.1211,18.4453,40.2157,40.2157,0,0,1-10.5107,13.0039,44.8319,44.8319,0,0,1-14.7061,7.834,57.8062,57.8062,0,0,1-17.5928,2.6123,53.36,53.36,0,0,1-22.2851-4.3525,45.7926,45.7926,0,0,1-16.1436-12.0791,50.8547,50.8547,0,0,1-9.8379-18.499A82.4015,82.4015,0,0,1,475.4078,131.07Z" transform="translate(0 -35.6377)"/><path class="cls-2" d="M596.4127,131.07A82.1187,82.1187,0,0,1,600,105.8789,54.02,54.02,0,0,1,610.273,86.9448a44.7745,44.7745,0,0,1,16.0332-11.9155,51.617,51.617,0,0,1,21.0889-4.1348,61.8534,61.8534,0,0,1,17.1025,2.3394,44.4073,44.4073,0,0,1,14.76,7.3452,37.953,37.953,0,0,1,10.6758,12.7861,49.211,49.211,0,0,1,5.0674,18.5533H667.1431q-1.0912-10.88-6.7109-15.1255-5.6176-4.2444-14.1269-4.2442a21.64,21.64,0,0,0-14.73,5.4409q-6.2183,5.4428-6.2178,16.7579v31.2309q0,10.4459,5.8906,16.377t15.2734,5.93q9.381,0,14.7823-4.461,5.3994-4.4619,6.71-15.7793h27.8565A51.1541,51.1541,0,0,1,690.75,166.49a40.2146,40.2146,0,0,1-10.5108,13.0039,44.83,44.83,0,0,1-14.706,7.834A57.8066,57.8066,0,0,1,647.94,189.94a53.3592,53.3592,0,0,1-22.2851-4.3525,45.7926,45.7926,0,0,1-16.1436-12.0791,50.8532,50.8532,0,0,1-9.8379-18.499A82.4015,82.4015,0,0,1,596.4127,131.07Z" transform="translate(0 -35.6377)"/><path class="cls-2" d="M716.3277,154.9a33.2736,33.2736,0,0,1,9.5762-23.8233q9.577-10.0077,27.6416-11.64l31.4463-2.6221v-7.3994q0-8.9208-4.7881-12.8945-4.79-3.9712-13.0586-3.9722-8.4873,0-13.8193,4.0806-5.3335,4.081-5.3321,11.9155H720.1363A34.5627,34.5627,0,0,1,734.2828,80.47a45.74,45.74,0,0,1,15.0166-7.1274,69.7139,69.7139,0,0,1,18.9346-2.4483q20.4565,0,32.3183,9.9024,11.8595,9.903,11.8613,29.0542v55.7143H831.565V187.22H787.7115l-.2168-17.6279h-.9795a39.8981,39.8981,0,0,1-13.0039,14.8535q-8.1079,5.4932-21.2734,5.4951a37.9142,37.9142,0,0,1-14.31-2.6123,35.4683,35.4683,0,0,1-11.3711-7.29,32.5327,32.5327,0,0,1-7.5635-10.9912A35.9975,35.9975,0,0,1,716.3277,154.9Zm28.9453,3.1767a8.2229,8.2229,0,0,0,4.68,7.6563q4.6773,2.5531,12.0781,2.5518,10.6641,0,16.8125-7.54a28.0166,28.0166,0,0,0,6.1485-18.2842v-4.45L751.5894,140.92q-6.2065.6534-6.3164,7.3848Z" transform="translate(0 -35.6377)"/><path class="cls-2" d="M850.9351,187.22V73.6147h27.8565V90.0464A38.08,38.08,0,0,1,891.2515,75.9q7.5616-5.0039,18.88-5.0054,12.296,0,20.1856,5.4951a32.23,32.23,0,0,1,11.6972,15.7242q11.1006-21.219,34.6045-21.2193,17.4082,0,26.17,11.1538,8.7584,11.1556,8.76,30.7408V187.22H983.692V114.7476q0-21.1092-15.9961-21.11h-.2178a19.7006,19.7006,0,0,0-16.1592,7.6714q-6.1494,7.672-6.1484,20.1855V187.22H917.3131V114.7476q0-21.1092-16.1045-21.11h-.2178a19.553,19.553,0,0,0-16.1055,7.6714q-6.0951,7.672-6.0937,20.1855V187.22Z" transform="translate(0 -35.6377)"/><path class="cls-2" d="M1044.52,60.4482v-24.81h28.7275v24.81Zm.4355,126.7715V73.6147h27.8565V187.22Z" transform="translate(0 -35.6377)"/><path class="cls-2" d="M1101.2144,131.07a82.1187,82.1187,0,0,1,3.5869-25.1914,54.0217,54.0217,0,0,1,10.2735-18.9341,44.7736,44.7736,0,0,1,16.0332-11.9155,51.6163,51.6163,0,0,1,21.0889-4.1348,61.8539,61.8539,0,0,1,17.1025,2.3394,44.4073,44.4073,0,0,1,14.76,7.3452,37.9528,37.9528,0,0,1,10.6757,12.7861,49.211,49.211,0,0,1,5.0674,18.5533h-27.8574q-1.0912-10.88-6.7109-15.1255-5.6178-4.2444-14.127-4.2442a21.64,21.64,0,0,0-14.7295,5.4409q-6.2183,5.4428-6.2178,16.7579v31.2309q0,10.4459,5.8907,16.377t15.2734,5.93q9.3809,0,14.7822-4.461,5.3994-4.4619,6.71-15.7793h27.8564a51.15,51.15,0,0,1-5.1211,18.4453,40.2157,40.2157,0,0,1-10.5107,13.0039,44.8309,44.8309,0,0,1-14.7061,7.834,57.806,57.806,0,0,1-17.5927,2.6123,53.36,53.36,0,0,1-22.2852-4.3525,45.7922,45.7922,0,0,1-16.1435-12.0791,50.8517,50.8517,0,0,1-9.8379-18.499A82.4014,82.4014,0,0,1,1101.2144,131.07Z" transform="translate(0 -35.6377)"/><path class="cls-2" d="M1222.2183,130.418a77.7287,77.7287,0,0,1,3.587-24.3213,54.4971,54.4971,0,0,1,10.3818-18.8252,45.2115,45.2115,0,0,1,16.6865-12.1333,62.4805,62.4805,0,0,1,45.2676,0,45.3263,45.3263,0,0,1,16.7207,12.1333,53.7858,53.7858,0,0,1,10.3476,18.8252,78.68,78.68,0,0,1,3.54,24.3213,78.1607,78.1607,0,0,1-3.54,24.2656,54.4123,54.4123,0,0,1-10.3476,18.8252,45.0393,45.0393,0,0,1-16.7207,12.1875,62.4751,62.4751,0,0,1-45.2676,0,44.9259,44.9259,0,0,1-16.6865-12.1875,55.1416,55.1416,0,0,1-10.3818-18.8252A77.2163,77.2163,0,0,1,1222.2183,130.418Zm28.9453,16.4306q0,10.2291,6.9249,15.833,6.9243,5.606,17.3955,5.6036,10.4693,0,17.3955-5.4405,6.9243-5.4389,6.9248-15.9961V113.877q0-10.4466-6.9248-15.8873-6.9273-5.44-17.3955-5.4409-10.4722,0-17.3955,5.55-6.9273,5.55-6.9249,15.7784Z" transform="translate(0 -35.6377)"/></g></g></g></g></svg>