<?xml version="1.0" encoding="UTF-8"?>
<!DOCTYPE svg PUBLIC "-//W3C//DTD SVG 1.1//EN" "http://www.w3.org/Graphics/SVG/1.1/DTD/svg11.dtd">
<!-- Creator: CorelDRAW X5 -->
<svg xmlns="http://www.w3.org/2000/svg" xml:space="preserve" width="2654.3mm" height="327.677mm" style="shape-rendering:geometricPrecision; text-rendering:geometricPrecision; image-rendering:optimizeQuality; fill-rule:evenodd; clip-rule:evenodd" viewBox="0 0 380997 47034" xmlns:xlink="http://www.w3.org/1999/xlink">
 <defs>
  <style type="text/css">
   <![CDATA[
    .fil0 {fill:black;fill-rule:nonzero}
   ]]>
  </style>
 </defs>
 <g id="Livello_x0020_1">
  <metadata id="CorelCorpID_0Corel-Layer"/>
  <path class="fil0" d="M0 1065l0 5854 2461 0c1197,-11 2095,77 2683,277 577,188 965,576 1142,1131 166,554 255,1375 233,2450l0 25214c22,1075 -67,1896 -233,2450 -177,554 -565,931 -1142,1131 -588,200 -1486,288 -2683,277l-2461 0 0 5854 41845 0 0 -18228 -5854 0c-177,2517 -521,4612 -1009,6298 -488,1674 -1242,2994 -2251,3947 -710,676 -1552,1164 -2517,1464 -976,310 -2096,499 -3371,576 -1264,67 -2694,100 -4291,89l-3526 0 0 -29072c-22,-1076 67,-1896 255,-2450 189,-554 576,-942 1175,-1131 588,-200 1497,-288 2694,-277l2794 0 0 -5854 -25945 0zm43575 44639l19559 0 0 -5854 -2195 0c-865,11 -1552,-33 -2085,-100 -532,-78 -909,-233 -1153,-466 -244,-222 -355,-576 -355,-1031 0,-166 22,-410 67,-721 44,-310 133,-676 266,-1075l1663 -5122 12840 0 1730 5522c78,266 144,521 222,754 67,233 111,443 111,643 11,654 -299,1086 -931,1297 -632,222 -1674,322 -3127,299l-1863 0 0 5854 24615 0 0 -5854 -2262 0c-920,11 -1652,-122 -2207,-388 -554,-266 -1009,-699 -1375,-1308 -355,-599 -687,-1419 -1009,-2428l-10977 -34660 -13305 0 -11443 34461c-255,776 -510,1442 -754,1996 -244,554 -543,998 -887,1342 -355,344 -809,588 -1375,754 -554,155 -1286,233 -2173,233l-1597 0 0 5854zm26744 -20157l-9048 0 4590 -14104 4457 14104zm40581 20756l1796 -3260c1098,787 2406,1475 3914,2073 1519,599 3160,1064 4945,1397 1774,344 3615,510 5511,521 3870,-22 7185,-621 9946,-1818 2750,-1209 4856,-2883 6331,-5056 1464,-2162 2207,-4701 2218,-7628 0,-2561 -532,-4779 -1608,-6664 -1076,-1874 -2705,-3460 -4901,-4746 -2184,-1297 -4934,-2351 -8260,-3160 -2295,-554 -4324,-998 -6076,-1353 -1752,-355 -3227,-721 -4413,-1098 -1197,-377 -2095,-876 -2705,-1486 -599,-621 -909,-1452 -909,-2517 0,-1031 288,-1929 843,-2705 566,-776 1386,-1386 2461,-1818 1075,-444 2395,-665 3947,-665 2473,0 4646,421 6520,1264 1874,832 3382,2040 4524,3615 1142,1575 1852,3470 2129,5699l6121 0 0 -16299 -5522 0 -1331 3127c-1696,-1286 -3659,-2240 -5899,-2839 -2229,-599 -4745,-898 -7540,-887 -3892,11 -7185,576 -9879,1708 -2705,1131 -4757,2750 -6165,4879 -1397,2118 -2107,4668 -2118,7651 11,1996 399,3803 1164,5411 776,1608 1896,3005 3360,4169 1087,854 2340,1574 3748,2173 1408,599 2972,1131 4701,1597 1730,466 3615,942 5655,1419 1519,355 2894,676 4113,965 1220,299 2273,632 3149,1031 876,399 1541,920 2007,1574 466,665 710,1530 710,2617 0,1076 -321,2007 -942,2794 -632,798 -1541,1419 -2739,1863 -1197,432 -2661,654 -4369,665 -2428,-11 -4624,-488 -6575,-1442 -1951,-953 -3548,-2306 -4812,-4058 -1264,-1752 -2073,-3847 -2450,-6276l-5987 0 0 17563 5389 0zm78036 -45238l-43442 0 0 17230 5987 0c-11,-3814 721,-6653 2184,-8493 1464,-1841 3714,-2761 6730,-2750l665 0 0 28407c22,1164 -33,2062 -155,2717 -122,643 -433,1042 -909,1209 -632,200 -1452,355 -2451,455 -1009,100 -2206,144 -3603,144l0 5721 26477 0 0 -5721c-1397,-22 -2594,-78 -3592,-144 -998,-78 -1796,-233 -2395,-455 -477,-166 -787,-566 -909,-1220 -122,-654 -177,-1574 -155,-2772l0 -28340 665 0c3016,-11 5245,909 6697,2750 1442,1841 2162,4679 2151,8493l6054 0 0 -17230zm-6719 44639l19559 0 0 -5854 -2195 0c-865,11 -1552,-33 -2085,-100 -532,-78 -909,-233 -1153,-466 -244,-222 -355,-576 -355,-1031 0,-166 22,-410 67,-721 44,-310 133,-676 266,-1075l1663 -5122 12840 0 1730 5522c78,266 144,521 222,754 67,233 111,443 111,643 11,654 -299,1086 -931,1297 -632,222 -1674,322 -3127,299l-1863 0 0 5854 24615 0 0 -5854 -2262 0c-920,11 -1652,-122 -2207,-388 -554,-266 -1009,-699 -1375,-1308 -355,-599 -687,-1419 -1009,-2428l-10977 -34660 -13305 0 -11443 34461c-255,776 -510,1442 -754,1996 -244,554 -543,998 -887,1342 -355,344 -809,588 -1375,754 -554,155 -1286,233 -2173,233l-1597 0 0 5854zm26744 -20157l-9048 0 4590 -14104 4457 14104zm38253 10445l0 -27941 10777 37654 8981 0 11110 -37587 0 27875c22,1075 -55,1896 -233,2450 -177,554 -566,931 -1142,1131 -588,200 -1475,288 -2683,277l-1331 0 0 5854 23417 0 0 -5854 -2262 0c-1198,11 -2096,-78 -2694,-277 -599,-200 -987,-577 -1175,-1131 -188,-554 -266,-1375 -255,-2450l0 -25214c-11,-1076 67,-1896 255,-2450 189,-554 577,-942 1175,-1131 599,-200 1497,-288 2694,-277l2262 0 0 -5854 -23218 0 -8183 27476 -7784 -27476 -23417 0 0 5854 2195 0c1209,-11 2107,77 2694,277 599,188 987,576 1175,1131 188,554 277,1375 255,2450l0 25214c22,1075 -67,1896 -255,2450 -189,554 -577,931 -1175,1131 -588,200 -1486,288 -2694,277l-2195 0 0 5854 19093 0 0 -5854 -1264 0c-1198,11 -2107,-78 -2694,-277 -599,-200 -987,-577 -1175,-1131 -188,-554 -277,-1375 -255,-2450zm78634 -34926l-27542 0 0 5854 2461 0c1197,-11 2095,77 2683,277 577,188 965,576 1142,1131 166,554 255,1375 233,2450l0 25214c22,1075 -67,1896 -233,2450 -177,554 -565,931 -1142,1131 -588,200 -1486,288 -2683,277l-2461 0 0 5854 26344 0 0 -5854 -3193 0c-1197,11 -2107,-78 -2694,-277 -599,-200 -987,-577 -1175,-1131 -189,-554 -277,-1375 -255,-2450l0 -9846 8515 0c1996,11 3803,-67 5433,-233 1630,-166 3105,-466 4413,-909 1308,-444 2484,-1087 3526,-1918 1375,-1109 2417,-2439 3149,-3992 732,-1552 1098,-3282 1109,-5189 0,-3027 -632,-5488 -1907,-7384 -1275,-1885 -3227,-3271 -5832,-4158 -2606,-876 -5899,-1308 -9890,-1297zm-8515 19293l0 -13438 4125 0c2040,-11 3714,200 5034,621 1319,421 2295,1109 2927,2062 643,942 954,2207 954,3770 11,1763 -288,3149 -909,4180 -610,1020 -1575,1741 -2883,2173 -1319,432 -3027,643 -5123,632l-4125 0zm14303 25347l19559 0 0 -5854 -2195 0c-865,11 -1552,-33 -2085,-100 -532,-78 -909,-233 -1153,-466 -244,-222 -355,-576 -355,-1031 0,-166 22,-410 67,-721 44,-310 133,-676 266,-1075l1663 -5122 12840 0 1730 5522c78,266 144,521 222,754 67,233 111,443 111,643 11,654 -299,1086 -931,1297 -632,222 -1674,322 -3127,299l-1863 0 0 5854 24615 0 0 -5854 -2262 0c-920,11 -1652,-122 -2207,-388 -554,-266 -1009,-699 -1375,-1308 -355,-599 -687,-1419 -1009,-2428l-10977 -34660 -13305 0 -11443 34461c-255,776 -510,1442 -754,1996 -244,554 -543,998 -887,1342 -355,344 -809,588 -1375,754 -554,155 -1286,233 -2173,233l-1597 0 0 5854zm26744 -20157l-9048 0 4590 -14104 4457 14104z"/>
 </g>
</svg>